<svg width="1410" height="887" viewBox="0 0 1410 887" fill="none" xmlns="http://www.w3.org/2000/svg">
<g clip-path="url(#clip0_199_404)">
<rect width="1410" height="887" fill="url(#paint0_radial_199_404)"/>
<g filter="url(#filter0_d_199_404)">
<path d="M0 256.5V0H306C250.993 81.4488 251.109 246.371 0 256.5Z" fill="url(#paint1_linear_199_404)"/>
</g>
<path d="M0 162.5V0H209C183.5 75 172 173.501 0 162.5Z" fill="url(#paint2_linear_199_404)"/>
<path d="M1410 256.5V0H1104C1159.01 81.4488 1158.89 246.371 1410 256.5Z" fill="url(#paint3_linear_199_404)"/>
<path d="M1410 162.5V0H1201C1226.5 75 1238 173.501 1410 162.5Z" fill="url(#paint4_linear_199_404)"/>
<g filter="url(#filter1_d_199_404)">
<path d="M356 191.45C379.063 189.249 384.99 181.382 386.8 159C389.102 184.512 396.618 190.771 418.15 191.45C395.437 194.337 388.509 200.907 386.8 221.7C383.472 200.195 377.39 192.834 356 191.45Z" fill="url(#paint5_linear_199_404)"/>
</g>
<g filter="url(#filter2_d_199_404)">
<path d="M1030.21 435.23C1048.67 433.469 1053.41 427.175 1054.85 409.27C1056.7 429.679 1062.71 434.687 1079.93 435.23C1061.76 437.54 1056.22 442.795 1054.85 459.43C1052.19 442.226 1047.33 436.337 1030.21 435.23Z" fill="url(#paint6_linear_199_404)"/>
</g>
<g filter="url(#filter3_d_199_404)">
<path d="M949 265.96C967.45 264.199 972.192 257.905 973.64 240C975.482 260.409 981.494 265.417 998.72 265.96C980.549 268.27 975.007 273.525 973.64 290.16C970.978 272.956 966.112 267.067 949 265.96Z" fill="white"/>
</g>
<g filter="url(#filter4_d_199_404)">
<path d="M919.028 652.136C941.168 650.023 946.858 642.471 948.596 620.984C950.806 645.475 958.021 651.485 978.692 652.136C956.887 654.908 950.237 661.215 948.596 681.176C945.401 660.532 939.563 653.465 919.028 652.136Z" fill="url(#paint7_linear_199_404)"/>
</g>
<g filter="url(#filter5_d_199_404)">
<path d="M1285 279.152C1307.14 277.039 1312.83 269.486 1314.57 248C1316.78 272.491 1323.99 278.5 1344.66 279.152C1322.86 281.924 1316.21 288.23 1314.57 308.192C1311.37 287.547 1305.53 280.481 1285 279.152Z" fill="url(#paint8_linear_199_404)"/>
</g>
<g filter="url(#filter6_d_199_404)">
<circle cx="340.5" cy="266.5" r="11.5" fill="url(#paint9_radial_199_404)"/>
</g>
<g filter="url(#filter7_d_199_404)">
<circle cx="598.5" cy="676.5" r="11.5" fill="url(#paint10_radial_199_404)"/>
</g>
<g filter="url(#filter8_d_199_404)">
<circle cx="1193.8" cy="351.8" r="13.8" fill="url(#paint11_radial_199_404)"/>
</g>
<g filter="url(#filter9_d_199_404)">
<circle cx="250" cy="222" r="11" fill="url(#paint12_radial_199_404)"/>
</g>
<g filter="url(#filter10_d_199_404)">
<circle cx="716" cy="737" r="11" fill="url(#paint13_radial_199_404)"/>
</g>
<g filter="url(#filter11_d_199_404)">
<circle cx="1274" cy="546" r="11" fill="url(#paint14_radial_199_404)"/>
</g>
<path d="M0 887V698.16C232.5 563.5 307.5 827 535 887H0Z" fill="url(#paint15_linear_199_404)"/>
<path d="M1408 887V489C1244.04 742.291 716 735.5 680.652 887H1408Z" fill="url(#paint16_linear_199_404)"/>
<path d="M0 887V742.234C159.5 702 265.78 793.5 265.78 887L0 887Z" fill="url(#paint17_linear_199_404)"/>
<g filter="url(#filter12_d_199_404)">
<path d="M0.000150382 809.665C0.000150382 809.665 -0.000187978 339.17 0.000150382 385.165C0.000488742 431.161 104.433 482.613 116.5 598.665C128.567 714.717 33.144 802.626 0.000150382 809.665Z" fill="url(#paint18_linear_199_404)"/>
<path d="M0 511V698C0 698 51 681 60 615.5C69 550 0 511 0 511Z" fill="url(#paint19_linear_199_404)"/>
</g>
<circle cx="69.5" cy="392.5" r="10.5" fill="white"/>
<circle cx="1315.5" cy="383.5" r="10.5" fill="white"/>
<g filter="url(#filter13_d_199_404)">
<path d="M1410 651V887H1080.19C1072.01 702.456 1327.14 651 1410 651Z" fill="url(#paint20_linear_199_404)"/>
</g>
<path d="M1410 737.786V887H1187.2C1183.65 816.999 1226.64 727.685 1410 737.786Z" fill="url(#paint21_linear_199_404)"/>
<g filter="url(#filter14_d_199_404)">
<path d="M1157.49 508.377C1158.24 508.943 1159 509.51 1159.77 510.093C1160.39 510.519 1161 510.945 1161.63 511.384C1171.57 518.92 1177.53 531.239 1180.19 543.141C1180.93 560.747 1179.2 574.385 1167.12 588.278C1163.36 592.212 1159.48 595.584 1154.91 598.545C1154.26 598.984 1153.6 599.422 1152.93 599.874C1141.39 606.978 1126.62 608.157 1113.49 605.649C1098.1 601.317 1086.8 591.92 1078.8 578.243C1075.87 572.847 1073.99 568.726 1073.27 562.581C1072.94 562.26 1072.62 561.94 1072.29 561.609C1070.68 544.608 1075.76 529.627 1086.64 516.377C1104.4 496.852 1135.87 493.203 1157.49 508.377Z" fill="#988EF5"/>
</g>
<path d="M1089.79 524.672C1094.01 525.034 1097.64 526.839 1101.45 528.56C1101.01 530.525 1100.56 532.489 1100.12 534.453C1099.74 536.093 1099.74 536.093 1099.36 537.767C1098.54 541.202 1097.56 544.602 1096.59 548C1091.14 548 1085.69 548 1080.07 548C1081.28 539.743 1083.71 530.747 1089.79 524.672Z" fill="#E4DBFC"/>
<path d="M1080.07 553.832C1085.52 553.832 1090.98 553.832 1096.59 553.832C1097.5 561.365 1097.5 561.365 1097.79 563.718C1098.19 566.97 1098.67 570.108 1099.51 573.272C1098.12 574.09 1096.72 574.898 1095.32 575.702C1094.54 576.153 1093.76 576.604 1092.96 577.069C1090.76 578.132 1090.76 578.132 1087.85 578.132C1083.66 570.657 1080.07 562.547 1080.07 553.832Z" fill="#E3D3FB"/>
<path d="M1156.86 556.748C1161.67 556.748 1166.48 556.748 1171.44 556.748C1171.08 566.085 1168.82 572.344 1163.66 580.076C1159.4 579.58 1156.53 578.597 1152.97 576.188C1154.11 569.668 1155.38 563.2 1156.86 556.748Z" fill="#E5D2FB"/>
<path d="M1107.29 531.477C1109.31 531.778 1111.34 532.082 1113.36 532.388C1114.49 532.557 1115.62 532.726 1116.78 532.9C1119.92 533.421 1119.92 533.421 1123.81 534.393C1123.81 539.204 1123.81 544.015 1123.81 548.973C1116.75 548.973 1109.7 548.973 1102.43 548.973C1103.15 544.613 1103.98 541.06 1105.4 536.944C1105.75 535.914 1106.11 534.884 1106.47 533.823C1106.74 533.049 1107.01 532.274 1107.29 531.477Z" fill="#E1D3FB"/>
<path d="M1129.64 555.777C1136.38 555.777 1143.11 555.777 1150.05 555.777C1150.05 563.605 1150.05 563.605 1148.84 567.806C1148.61 568.635 1148.39 569.465 1148.15 570.319C1147.14 572.301 1147.14 572.301 1145.53 573.186C1142.18 573.314 1139.4 572.367 1136.2 571.39C1134.97 571.02 1133.75 570.651 1132.48 570.27C1131.54 569.978 1130.61 569.686 1129.64 569.385C1129.64 564.895 1129.64 560.404 1129.64 555.777Z" fill="#E7D5FC"/>
<path d="M1165.61 528.56C1170.96 535.497 1171.79 541.412 1172.41 549.944C1167.28 549.944 1162.14 549.944 1156.86 549.944C1156.74 548.361 1156.62 546.777 1156.49 545.145C1156.04 540.12 1155.14 535.4 1153.94 530.504C1155.15 529.985 1156.37 529.482 1157.59 528.986C1158.26 528.704 1158.94 528.422 1159.64 528.131C1162.07 527.495 1163.28 527.613 1165.61 528.56Z" fill="#E9D8FB"/>
<path d="M1102.43 554.805C1105.28 554.778 1108.14 554.759 1110.99 554.744C1111.8 554.736 1112.61 554.728 1113.45 554.719C1114.23 554.716 1115.01 554.713 1115.81 554.71C1116.89 554.702 1116.89 554.702 1117.98 554.694C1119.92 554.805 1119.92 554.805 1122.84 555.777C1122.84 560.267 1122.84 564.758 1122.84 569.385C1114.18 570.347 1114.18 570.347 1105.34 571.329C1102.43 558.085 1102.43 558.085 1102.43 554.805Z" fill="#E3D2FB"/>
<path d="M1147.14 532.448C1147.63 534.106 1148.12 535.767 1148.6 537.43C1148.87 538.354 1149.14 539.279 1149.42 540.232C1150.05 543.14 1150.05 543.14 1150.05 548.972C1143.64 548.972 1137.22 548.972 1130.61 548.972C1130.61 544.161 1130.61 539.349 1130.61 534.392C1143.86 532.448 1143.86 532.448 1147.14 532.448Z" fill="#E8D7FC"/>
<path d="M1130.61 509.12C1135.41 510.32 1136.17 511.771 1139.06 515.681C1139.82 516.699 1140.59 517.716 1141.38 518.764C1143.12 521.555 1143.97 523.363 1144.22 526.616C1143.25 527.588 1143.25 527.588 1140.39 527.683C1137.13 527.651 1133.87 527.62 1130.61 527.588C1130.61 521.494 1130.61 515.399 1130.61 509.12Z" fill="#E7DCFC"/>
<path d="M1124.78 508.148C1124.78 514.564 1124.78 520.979 1124.78 527.588C1117.56 526.626 1117.56 526.626 1110.2 525.644C1111.43 520.709 1118.56 508.148 1124.78 508.148Z" fill="#EAE0FD"/>
<path d="M1128.67 577.16C1133.16 577.802 1137.65 578.443 1142.28 579.104C1140.66 583.152 1139.82 584.879 1137.05 587.913C1136.45 588.576 1135.85 589.239 1135.23 589.921C1134.67 590.522 1134.11 591.122 1133.53 591.74C1132.79 592.542 1132.05 593.344 1131.28 594.17C1129.64 595.628 1129.64 595.628 1127.7 595.628C1128.02 589.534 1128.34 583.439 1128.67 577.16Z" fill="#DFCDFB"/>
<path d="M1121.87 577.161C1121.87 582.934 1121.87 588.708 1121.87 594.657C1118.3 592.874 1116.94 591.849 1114.45 588.946C1113.88 588.287 1113.31 587.628 1112.71 586.949C1110.39 583.921 1109.23 581.988 1109.23 578.133C1113.71 577.014 1116.95 577.161 1121.87 577.161Z" fill="#DFCCFA"/>
<path d="M1114.09 508.148C1114.09 509.111 1114.09 510.073 1114.09 511.064C1112.47 512.684 1110.85 514.304 1109.23 515.924C1107.79 518.138 1106.58 520.391 1105.34 522.728C1101.59 522.943 1099.03 522.343 1095.62 520.784C1095.97 518.139 1096.34 517.113 1098.4 515.344C1109.85 508.148 1109.85 508.148 1114.09 508.148Z" fill="#E4DFFC"/>
<path d="M1141.31 509.12C1145.04 510.491 1148.27 512.224 1151.63 514.345C1152.55 514.913 1153.46 515.482 1154.4 516.068C1156.75 517.789 1158.19 519.341 1159.77 521.756C1153.64 524.705 1153.64 524.705 1150.95 524.573C1148.23 523.304 1147.77 521.613 1146.59 518.901C1144.81 514.806 1144.81 514.806 1141.31 512.036C1141.31 511.074 1141.31 510.112 1141.31 509.12Z" fill="#EADFFC"/>
<path d="M1103.4 581.048C1105.02 583.379 1105.02 583.379 1106.5 586.272C1107.24 587.697 1107.24 587.697 1108 589.15C1109.23 591.74 1109.23 591.74 1110.2 594.656C1103.2 592.86 1096.8 588.999 1092.71 582.992C1100.04 579.466 1100.04 579.466 1103.4 581.048Z" fill="#DDCDFA"/>
<path d="M1149.08 582.02C1151.33 582.661 1153.57 583.303 1155.89 583.964C1155.89 585.247 1155.89 586.53 1155.89 587.852C1151.12 591.857 1145.4 594.315 1139.36 595.628C1139.74 595.134 1140.11 594.64 1140.5 594.132C1143.5 590.171 1146.37 586.183 1149.08 582.02Z" fill="#E2D5FC"/>
<path d="M1124.78 508.148C1124.78 514.564 1124.78 520.979 1124.78 527.588C1124.46 527.588 1124.14 527.588 1123.81 527.588C1123.49 522.456 1123.17 517.324 1122.84 512.036C1119.95 514.923 1117.06 517.81 1114.09 520.784C1114.09 516.874 1115.38 515.883 1117.98 513.008C1123.29 508.148 1123.29 508.148 1124.78 508.148Z" fill="#DBD6FC"/>
<path d="M1114.09 508.148C1114.09 509.111 1114.09 510.073 1114.09 511.064C1111.66 513.191 1111.66 513.191 1109.23 514.952C1108.59 513.349 1107.95 511.745 1107.29 510.092C1109.86 508.673 1111.07 508.148 1114.09 508.148Z" fill="#D5D3FA"/>
<path d="M276.595 326.566C277.642 326.513 278.689 326.459 279.768 326.404C282.921 327.015 284.288 327.993 286.178 330.597C287.653 333.565 287.645 336.503 287.65 339.766C287.684 344.521 287.684 344.521 288.289 349.22C288.849 352.099 289.037 354.919 289.221 357.847C289.278 358.745 289.278 358.745 289.337 359.661C289.774 366.648 290.152 373.639 290.51 380.631C290.56 381.539 290.609 382.448 290.661 383.384C290.766 385.474 290.841 387.56 290.895 389.651C290.948 391.264 290.948 391.264 291.002 392.91C290.352 396.452 288.845 397.737 286.11 399.991C283.498 401.297 280.75 401.256 277.877 401.472C277.211 401.525 276.545 401.578 275.859 401.632C273.648 401.805 271.437 401.971 269.225 402.136C268.466 402.193 267.707 402.251 266.924 402.31C249.869 403.595 232.801 404.606 215.71 405.271C214.625 405.313 213.539 405.356 212.421 405.399C209.685 405.493 206.952 405.557 204.215 405.601C203.468 405.624 202.72 405.647 201.95 405.67C197.343 405.684 194.676 404.879 191.07 401.751C189.592 399.299 189.058 397.319 188.868 394.478C188.815 393.741 188.763 393.004 188.708 392.245C188.66 391.45 188.611 390.655 188.561 389.836C188.504 389.004 188.448 388.171 188.39 387.313C188.21 384.61 188.044 381.906 187.88 379.201C187.824 378.287 187.767 377.372 187.709 376.43C187.046 365.648 186.393 354.859 186.23 344.056C186.203 343.16 186.177 342.263 186.149 341.34C186.147 337.638 186.363 335.422 188.183 332.152C191.254 330.364 192.73 330.174 196.21 329.953C197.233 329.888 198.257 329.823 199.311 329.755C204.434 329.492 209.555 329.303 214.682 329.151C215.805 329.115 216.927 329.079 218.084 329.043C221.637 328.93 225.191 328.82 228.745 328.711C244.713 328.22 260.641 327.15 276.595 326.566Z" fill="url(#paint22_linear_199_404)"/>
<path d="M224.51 347.191C227.468 347.662 229.864 348.92 232.492 350.312C233.354 350.766 234.216 351.22 235.105 351.687C236.449 352.402 236.449 352.402 237.82 353.131C239.582 354.062 241.344 354.993 243.107 355.922C244.392 356.6 244.392 356.6 245.703 357.292C249.467 359.255 253.264 361.151 257.07 363.031C256.987 364.527 256.987 364.527 256.19 366.551C254.314 368.102 252.505 369.44 250.484 370.776C249.622 371.357 249.622 371.357 248.744 371.951C247.528 372.767 246.309 373.578 245.086 374.384C243.218 375.621 241.368 376.881 239.518 378.144C238.335 378.934 237.15 379.723 235.964 380.511C235.412 380.889 234.86 381.268 234.291 381.658C231.747 383.309 230.28 384.191 227.204 383.938C226.606 383.718 226.007 383.498 225.39 383.271C223.056 355.75 223.056 355.75 223.63 348.071C223.921 347.781 224.211 347.49 224.51 347.191Z" fill="#FBFBFD"/>
<path d="M327.345 555.594C332.515 559.57 337.671 565.015 338.6 571.645C338.811 573.851 338.955 576.062 339.09 578.274C333.878 579.477 333.878 579.477 328.56 580.704C328.293 581.773 328.026 582.842 327.75 583.944C328.618 583.876 329.485 583.808 330.379 583.738C331.511 583.655 332.643 583.571 333.774 583.488C334.634 583.42 334.634 583.42 335.51 583.351C336.971 583.246 338.436 583.186 339.9 583.134C340.71 583.944 340.71 583.944 340.71 587.994C337.235 588.796 333.76 589.598 330.18 590.424C329.913 591.493 329.646 592.562 329.37 593.664C330.619 593.548 331.868 593.429 333.116 593.309C333.812 593.244 334.507 593.178 335.224 593.11C337.61 592.838 339.964 592.457 342.33 592.044C346.389 608.812 346.389 608.812 343.089 615.281C339.06 621.694 334.713 625.327 327.446 627.431C320.741 628.229 314.714 627.917 308.956 624.058C302.037 618.446 300.308 612.043 299.4 603.384C299.378 602.034 299.371 600.683 299.4 599.334C300.337 599.172 300.337 599.172 301.292 599.008C302.105 598.865 302.917 598.722 303.754 598.574C304.562 598.433 305.37 598.293 306.203 598.147C308.285 597.813 308.285 597.813 309.93 596.904C309.93 596.102 309.93 595.3 309.93 594.474C305.921 594.741 301.911 595.008 297.78 595.284C297.513 593.947 297.246 592.611 296.97 591.234C299.562 589.765 301.938 589.191 304.868 588.703C306.064 588.499 306.064 588.499 307.285 588.291C307.891 588.193 308.496 588.095 309.12 587.994C308.853 587.192 308.586 586.39 308.31 585.564C307.028 585.542 305.745 585.526 304.463 585.513C303.748 585.504 303.034 585.494 302.298 585.485C300.387 585.557 298.797 585.832 296.97 586.374C294.589 580.26 294.314 572.874 295.85 566.469C298.142 561.307 302.886 557.198 307.956 554.834C313.844 552.981 321.874 552.431 327.345 555.594Z" fill="url(#paint23_linear_199_404)"/>
<path d="M355.554 586.593C354.512 585.6 354.348 585.549 352.249 585.29C352.084 585.27 351.915 585.27 351.751 585.292C349.9 585.529 349.613 585.603 348.549 586.639C348.193 586.986 347.986 587.46 347.964 587.957C347.924 588.847 347.914 589.261 347.935 589.879C347.963 590.696 348.52 591.407 349.296 591.665C349.999 591.9 350.504 592.502 350.625 593.233C352.086 602.097 353.668 610.391 349.174 618.653L347.747 620.9L346.339 623.159C341.711 629.299 334.103 632.739 326.637 633.929C316.823 635.01 309.093 633.572 301.172 627.329C295.412 621.748 291.998 614.549 291.402 606.573C291.357 604.035 291.238 601.699 290.808 599.272C290.646 598.355 289.834 597.651 288.905 597.597C288.458 597.571 287.953 597.583 287.25 597.714C285.707 598 285 599 284.82 600.144C284.641 601.287 285.542 609.651 286.853 614.538L287.301 616.192C289.393 622.787 291.453 625.998 296.492 631.351C303.225 637.778 311.358 640.76 320.612 640.795L322.432 640.724C323.567 640.68 324.51 641.588 324.51 642.723V648.122C324.51 648.978 323.965 649.743 323.153 650.013C320.933 650.752 320.457 650.794 317.271 651.072C314.377 651.401 314.22 651.419 311.961 651.897C311.691 651.954 311.433 652.067 311.209 652.228C310.209 652.946 309.969 653.15 309.517 653.811C309.255 654.196 309.149 654.667 309.204 655.13C309.314 656.047 309.379 656.476 309.526 657.053C309.742 657.899 310.524 658.475 311.397 658.478C315.061 658.49 318.663 658.325 322.329 657.97L324.409 657.755C329.318 657.254 334.171 656.718 338.992 655.635C340.261 655.331 341.534 655.042 342.808 654.762C344.139 654.47 345.469 654.173 346.799 653.874C347.536 653.709 348.116 653.141 348.299 652.409L348.539 651.448C348.708 650.774 348.515 650.061 348.03 649.564L347.794 649.324C347.671 649.197 347.531 649.086 347.376 649C345.066 647.709 343.359 647.801 340.679 648.008L338.888 648.187C337.702 648.284 336.517 648.382 335.331 648.481L334.802 648.532C333.627 648.645 332.688 647.712 332.486 646.549C332.434 646.251 332.36 645.887 332.256 645.371L331.8 643.377L331.345 641.371L331.308 641.211C331.145 640.506 331.683 639.834 332.406 639.834C332.542 639.834 332.676 639.809 332.804 639.76C341.12 636.582 347.366 632.357 353.063 625.507C359.418 616.454 360.207 607.752 358.581 597.203L358.277 595.334C357.805 592.375 357.346 589.689 355.906 587.048C355.814 586.879 355.694 586.726 355.554 586.593Z" fill="url(#paint24_linear_199_404)"/>
<g filter="url(#filter15_d_199_404)">
<path d="M1022.18 237.51L1035.91 170.26C1037.07 164.543 1042.57 160.787 1048.32 161.776L1100.41 170.742C1106.34 171.764 1110.3 177.445 1109.19 183.367L1096.39 251.913C1095.3 257.804 1089.61 261.673 1083.73 260.534L1030.71 250.273C1024.81 249.132 1020.98 243.396 1022.18 237.51Z" fill="#9694F8"/>
<path d="M1047.09 226.304L1053.9 189.834C1054.03 189.182 1054.65 188.753 1055.3 188.875L1083.95 194.228C1084.6 194.35 1085.03 194.977 1084.91 195.628L1078.11 232.007C1077.91 233.07 1076.52 233.349 1075.93 232.445L1066.02 217.351C1065.65 216.79 1064.9 216.64 1064.34 217.018L1048.94 227.516C1048.06 228.118 1046.89 227.354 1047.09 226.304Z" fill="white"/>
</g>
<g opacity="0.35" filter="url(#filter16_d_199_404)">
<path d="M536.281 328.284C537.385 328.281 538.49 328.278 539.627 328.275C540.83 328.275 542.032 328.275 543.271 328.275C544.557 328.272 545.843 328.27 547.168 328.267C550.73 328.259 554.293 328.257 557.855 328.255C561.7 328.252 565.545 328.245 569.39 328.238C578.672 328.224 587.954 328.216 597.236 328.21C601.611 328.207 605.986 328.203 610.361 328.199C624.911 328.186 639.461 328.176 654.011 328.17C657.784 328.169 661.557 328.168 665.33 328.166C666.737 328.166 666.737 328.166 668.172 328.165C683.359 328.159 698.545 328.14 713.731 328.116C729.335 328.092 744.939 328.079 760.543 328.076C769.299 328.075 778.055 328.068 786.811 328.05C794.269 328.034 801.726 328.028 809.184 328.035C812.986 328.038 816.787 328.037 820.588 328.023C824.72 328.007 828.85 328.015 832.982 328.024C834.169 328.016 835.356 328.008 836.579 328C850.185 328.077 860.483 330.757 870.226 337.718C876.256 342.476 879.596 348.432 879.613 354.923C879.618 355.682 879.622 356.441 879.627 357.223C879.627 358.471 879.627 358.471 879.626 359.745C879.63 360.631 879.634 361.516 879.638 362.428C879.647 364.887 879.651 367.346 879.654 369.805C879.658 372.456 879.667 375.108 879.676 377.759C879.696 384.164 879.706 390.569 879.715 396.974C879.719 399.991 879.725 403.009 879.73 406.027C879.747 416.062 879.761 426.098 879.769 436.133C879.77 438.737 879.772 441.34 879.774 443.944C879.775 444.591 879.775 445.239 879.776 445.905C879.784 456.383 879.809 466.86 879.842 477.337C879.875 488.099 879.893 498.861 879.896 509.624C879.898 515.664 879.907 521.704 879.933 527.745C879.954 532.89 879.962 538.036 879.953 543.182C879.948 545.805 879.95 548.427 879.969 551.05C879.99 553.901 879.98 556.752 879.967 559.602C879.983 560.831 879.983 560.831 880 562.085C879.9 571.133 876.323 578.304 867.895 584.856C860.468 590.026 850.881 591.799 840.858 591.808C839.753 591.811 838.648 591.814 837.51 591.817C836.307 591.816 835.104 591.816 833.864 591.815C831.934 591.818 831.934 591.818 829.966 591.822C826.401 591.828 822.837 591.829 819.272 591.829C815.425 591.831 811.578 591.836 807.731 591.841C799.322 591.851 790.912 591.856 782.503 591.859C777.249 591.861 771.996 591.864 766.742 591.867C752.188 591.876 737.634 591.884 723.08 591.886C722.148 591.887 721.217 591.887 720.258 591.887C718.858 591.887 718.858 591.887 717.43 591.887C715.539 591.888 713.648 591.888 711.757 591.888C710.819 591.889 709.881 591.889 708.914 591.889C693.721 591.892 678.527 591.905 663.334 591.922C647.724 591.939 632.115 591.948 616.505 591.949C607.745 591.95 598.985 591.954 590.226 591.968C582.765 591.979 575.305 591.983 567.844 591.977C564.041 591.974 560.238 591.974 556.435 591.985C552.303 591.996 548.172 591.99 544.04 591.982C542.85 591.988 541.66 591.994 540.434 592C526.955 591.942 516.967 589.826 506.881 583.187C498.879 577.059 496.918 569.175 497.035 560.991C497.028 560.088 497.021 559.184 497.013 558.254C496.999 555.771 497.007 553.29 497.024 550.808C497.038 548.122 497.022 545.435 497.01 542.749C496.992 537.496 497 532.244 497.018 526.992C497.032 522.722 497.036 518.452 497.033 514.182C497.032 513.268 497.032 513.268 497.031 512.336C497.03 511.098 497.029 509.861 497.028 508.623C497.02 497.695 497.036 486.768 497.066 475.84C497.095 465.248 497.102 454.655 497.087 444.063C497.07 432.513 497.066 420.964 497.083 409.414C497.085 408.181 497.087 406.949 497.089 405.717C497.09 405.11 497.091 404.504 497.092 403.879C497.097 399.616 497.094 395.352 497.087 391.089C497.08 385.891 497.086 380.693 497.111 375.495C497.124 372.846 497.13 370.196 497.119 367.546C497.107 364.67 497.126 361.793 497.148 358.917C497.14 358.086 497.132 357.254 497.123 356.398C497.234 348.625 500.395 342.202 507.658 336.474C515.904 330.932 525.138 328.3 536.281 328.284Z" fill="url(#paint25_linear_199_404)"/>
<path d="M836.578 328.5C850.098 328.576 860.283 331.236 869.915 338.111H869.916C875.856 342.798 879.096 348.621 879.113 354.925V354.926L879.127 357.226C879.127 358.437 879.126 358.507 879.126 359.745V359.747C879.13 360.633 879.134 361.518 879.138 362.431C879.147 364.889 879.152 367.346 879.154 369.805V369.806L879.176 377.761C879.196 384.165 879.206 390.57 879.215 396.975L879.229 406.028C879.246 416.063 879.261 426.098 879.269 436.133C879.27 438.737 879.272 441.341 879.274 443.944C879.275 444.591 879.275 445.239 879.275 445.905C879.284 456.383 879.309 466.861 879.342 477.338C879.375 488.1 879.393 498.862 879.396 509.624C879.399 515.665 879.407 521.706 879.433 527.747C879.443 530.319 879.451 532.892 879.454 535.464L879.452 543.181C879.448 545.804 879.45 548.429 879.47 551.054C879.491 553.901 879.48 556.749 879.467 559.6V559.609C879.483 560.837 879.483 560.84 879.5 562.092C879.399 570.962 875.907 577.989 867.597 584.453C860.291 589.533 850.828 591.299 840.857 591.309H840.856C839.763 591.311 838.635 591.314 837.509 591.316C836.306 591.316 835.103 591.316 833.864 591.315H833.863C831.934 591.319 831.933 591.318 829.965 591.321C826.401 591.327 822.837 591.329 819.272 591.329H819.271C815.424 591.33 811.577 591.337 807.73 591.342C799.321 591.352 790.912 591.356 782.503 591.359C777.249 591.361 771.995 591.364 766.741 591.367C752.187 591.376 737.633 591.384 723.079 591.387C722.149 591.387 721.216 591.387 720.258 591.387C718.826 591.387 718.89 591.387 717.43 591.388C715.539 591.388 713.648 591.388 711.757 591.389H708.914C693.72 591.392 678.527 591.405 663.333 591.422C647.724 591.439 632.114 591.448 616.505 591.449C607.745 591.45 598.985 591.454 590.225 591.468C582.765 591.479 575.305 591.483 567.845 591.477C564.041 591.474 560.238 591.474 556.434 591.484C552.303 591.496 548.173 591.49 544.041 591.482H544.037C542.848 591.488 541.66 591.493 540.435 591.499C527.023 591.441 517.144 589.34 507.169 582.777C499.349 576.78 497.42 569.08 497.535 560.998V560.987L497.514 558.25C497.499 555.771 497.507 553.292 497.524 550.812V550.811C497.538 548.121 497.521 545.431 497.51 542.746C497.491 537.496 497.501 532.245 497.519 526.993C497.533 522.722 497.537 518.451 497.533 514.181C497.532 513.268 497.532 513.267 497.531 512.335C497.53 511.097 497.529 509.86 497.528 508.622C497.52 497.695 497.537 486.769 497.566 475.842C497.595 465.249 497.602 454.656 497.587 444.062C497.57 432.513 497.566 420.964 497.583 409.415C497.585 408.183 497.587 406.95 497.589 405.718C497.59 405.11 497.591 404.506 497.592 403.88C497.597 399.616 497.594 395.352 497.587 391.088C497.579 385.891 497.586 380.695 497.611 375.498C497.624 372.848 497.63 370.196 497.619 367.544C497.607 364.671 497.626 361.797 497.648 358.921V358.912C497.64 358.085 497.631 357.257 497.623 356.405C497.731 348.802 500.806 342.518 507.954 336.877C515.849 331.576 524.663 328.966 535.251 328.794L536.282 328.784C537.386 328.781 538.491 328.778 539.628 328.774C540.83 328.775 542.033 328.775 543.271 328.775H543.272C544.558 328.773 545.844 328.769 547.169 328.767C550.731 328.759 554.293 328.757 557.855 328.755C561.701 328.752 565.546 328.745 569.391 328.738C578.672 328.724 587.954 328.717 597.236 328.71C601.611 328.707 605.986 328.703 610.361 328.699C624.911 328.687 639.461 328.675 654.011 328.67C657.784 328.669 661.558 328.667 665.331 328.666C666.737 328.665 666.738 328.666 668.173 328.665C683.359 328.659 698.546 328.64 713.732 328.616C729.336 328.592 744.939 328.579 760.543 328.576C769.299 328.575 778.055 328.569 786.812 328.55C794.269 328.534 801.726 328.528 809.184 328.535C812.985 328.538 816.787 328.537 820.59 328.522C824.72 328.507 828.849 328.515 832.98 328.524H832.985C834.171 328.516 835.357 328.508 836.578 328.5Z" stroke="#949BF7"/>
</g>
<g opacity="0.8" filter="url(#filter17_d_199_404)">
<path d="M550.281 312.284C551.385 312.281 552.49 312.278 553.627 312.275C554.83 312.275 556.032 312.275 557.271 312.275C558.557 312.272 559.843 312.27 561.168 312.267C564.73 312.259 568.293 312.257 571.855 312.255C575.7 312.252 579.545 312.245 583.39 312.238C592.672 312.224 601.954 312.216 611.236 312.21C615.611 312.207 619.986 312.203 624.361 312.199C638.911 312.186 653.461 312.176 668.011 312.17C671.784 312.169 675.557 312.168 679.33 312.166C680.737 312.166 680.737 312.166 682.172 312.165C697.359 312.159 712.545 312.14 727.731 312.116C743.335 312.092 758.939 312.079 774.543 312.076C783.299 312.075 792.055 312.068 800.811 312.05C808.269 312.034 815.726 312.028 823.184 312.035C826.986 312.038 830.787 312.037 834.588 312.023C838.72 312.007 842.85 312.015 846.982 312.024C848.169 312.016 849.356 312.008 850.579 312C864.185 312.077 874.483 314.757 884.226 321.718C890.256 326.476 893.596 332.432 893.613 338.923C893.618 339.682 893.622 340.441 893.627 341.223C893.627 342.471 893.627 342.471 893.626 343.745C893.63 344.631 893.634 345.516 893.638 346.428C893.647 348.887 893.651 351.346 893.654 353.805C893.658 356.456 893.667 359.108 893.676 361.759C893.696 368.164 893.706 374.569 893.715 380.974C893.719 383.991 893.725 387.009 893.73 390.027C893.747 400.062 893.761 410.098 893.769 420.133C893.77 422.737 893.772 425.34 893.774 427.944C893.775 428.591 893.775 429.239 893.776 429.905C893.784 440.383 893.809 450.86 893.842 461.337C893.875 472.099 893.893 482.861 893.896 493.624C893.898 499.664 893.907 505.704 893.933 511.745C893.954 516.89 893.962 522.036 893.953 527.182C893.948 529.805 893.95 532.427 893.969 535.05C893.99 537.901 893.98 540.752 893.967 543.602C893.983 544.831 893.983 544.831 894 546.085C893.9 555.133 890.323 562.304 881.895 568.856C874.468 574.026 864.881 575.799 854.858 575.808C853.753 575.811 852.648 575.814 851.51 575.817C850.307 575.816 849.104 575.816 847.864 575.815C845.934 575.818 845.934 575.818 843.966 575.822C840.401 575.828 836.837 575.829 833.272 575.829C829.425 575.831 825.578 575.836 821.731 575.841C813.322 575.851 804.912 575.856 796.503 575.859C791.249 575.861 785.996 575.864 780.742 575.867C766.188 575.876 751.634 575.884 737.08 575.886C736.148 575.887 735.217 575.887 734.258 575.887C732.858 575.887 732.858 575.887 731.43 575.887C729.539 575.888 727.648 575.888 725.757 575.888C724.819 575.889 723.881 575.889 722.914 575.889C707.721 575.892 692.527 575.905 677.334 575.922C661.724 575.939 646.115 575.948 630.505 575.949C621.745 575.95 612.985 575.954 604.226 575.968C596.765 575.979 589.305 575.983 581.844 575.977C578.041 575.974 574.238 575.974 570.435 575.985C566.303 575.996 562.172 575.99 558.04 575.982C556.85 575.988 555.66 575.994 554.434 576C540.955 575.942 530.967 573.826 520.881 567.187C512.879 561.059 510.918 553.175 511.035 544.991C511.028 544.088 511.021 543.184 511.013 542.254C510.999 539.771 511.007 537.29 511.024 534.808C511.038 532.122 511.022 529.435 511.01 526.749C510.992 521.496 511 516.244 511.018 510.992C511.032 506.722 511.036 502.452 511.033 498.182C511.032 497.268 511.032 497.268 511.031 496.336C511.03 495.098 511.029 493.861 511.028 492.623C511.02 481.695 511.036 470.768 511.066 459.84C511.095 449.248 511.102 438.655 511.087 428.063C511.07 416.513 511.066 404.964 511.083 393.414C511.085 392.181 511.087 390.949 511.089 389.717C511.09 389.11 511.091 388.504 511.092 387.879C511.097 383.616 511.094 379.352 511.087 375.089C511.08 369.891 511.086 364.693 511.111 359.495C511.124 356.846 511.13 354.196 511.119 351.546C511.107 348.67 511.126 345.793 511.148 342.917C511.14 342.086 511.132 341.254 511.123 340.398C511.234 332.625 514.395 326.202 521.658 320.474C529.904 314.932 539.138 312.3 550.281 312.284Z" fill="url(#paint26_linear_199_404)"/>
<path d="M850.578 312.5C864.098 312.576 874.283 315.236 883.915 322.111H883.916C889.856 326.798 893.096 332.621 893.113 338.925V338.926L893.127 341.226C893.127 342.437 893.126 342.507 893.126 343.745V343.747C893.13 344.633 893.134 345.518 893.138 346.431C893.147 348.889 893.152 351.346 893.154 353.805V353.806L893.176 361.761C893.196 368.165 893.206 374.57 893.215 380.975L893.229 390.028C893.246 400.063 893.261 410.098 893.269 420.133C893.27 422.737 893.272 425.341 893.274 427.944C893.275 428.591 893.275 429.239 893.275 429.905C893.284 440.383 893.309 450.861 893.342 461.338C893.375 472.1 893.393 482.862 893.396 493.624C893.399 499.665 893.407 505.706 893.433 511.747C893.443 514.319 893.451 516.892 893.454 519.464L893.452 527.181C893.448 529.804 893.45 532.429 893.47 535.054C893.491 537.901 893.48 540.749 893.467 543.6V543.609C893.483 544.837 893.483 544.84 893.5 546.092C893.399 554.962 889.907 561.989 881.597 568.453C874.291 573.533 864.828 575.299 854.857 575.309H854.856C853.763 575.311 852.635 575.314 851.509 575.316C850.306 575.316 849.103 575.316 847.864 575.315H847.863C845.934 575.319 845.933 575.318 843.965 575.321C840.401 575.327 836.837 575.329 833.272 575.329H833.271C829.424 575.33 825.577 575.337 821.73 575.342C813.321 575.352 804.912 575.356 796.503 575.359C791.249 575.361 785.995 575.364 780.741 575.367C766.187 575.376 751.633 575.384 737.079 575.387C736.149 575.387 735.216 575.387 734.258 575.387C732.826 575.387 732.89 575.387 731.43 575.388C729.539 575.388 727.648 575.388 725.757 575.389H722.914C707.72 575.392 692.527 575.405 677.333 575.422C661.724 575.439 646.114 575.448 630.505 575.449C621.745 575.45 612.985 575.454 604.225 575.468C596.765 575.479 589.305 575.483 581.845 575.477C578.041 575.474 574.238 575.474 570.434 575.484C566.303 575.496 562.173 575.49 558.041 575.482H558.037C556.848 575.488 555.66 575.493 554.435 575.499C541.023 575.441 531.144 573.34 521.169 566.777C513.349 560.78 511.42 553.08 511.535 544.998V544.987L511.514 542.25C511.499 539.771 511.507 537.292 511.524 534.812V534.811C511.538 532.121 511.521 529.431 511.51 526.746C511.491 521.496 511.501 516.245 511.519 510.993C511.533 506.722 511.537 502.451 511.533 498.181C511.532 497.268 511.532 497.267 511.531 496.335C511.53 495.097 511.529 493.86 511.528 492.622C511.52 481.695 511.537 470.769 511.566 459.842C511.595 449.249 511.602 438.656 511.587 428.062C511.57 416.513 511.566 404.964 511.583 393.415C511.585 392.183 511.587 390.95 511.589 389.718C511.59 389.11 511.591 388.506 511.592 387.88C511.597 383.616 511.594 379.352 511.587 375.088C511.579 369.891 511.586 364.695 511.611 359.498C511.624 356.848 511.63 354.196 511.619 351.544C511.607 348.671 511.626 345.797 511.648 342.921V342.912C511.64 342.085 511.631 341.257 511.623 340.405C511.731 332.802 514.806 326.518 521.954 320.877C529.849 315.576 538.663 312.966 549.251 312.794L550.282 312.784C551.386 312.781 552.491 312.778 553.628 312.774C554.83 312.775 556.033 312.775 557.271 312.775H557.272C558.558 312.773 559.844 312.769 561.169 312.767C564.731 312.759 568.293 312.757 571.855 312.755C575.701 312.752 579.546 312.745 583.391 312.738C592.672 312.724 601.954 312.717 611.236 312.71C615.611 312.707 619.986 312.703 624.361 312.699C638.911 312.687 653.461 312.675 668.011 312.67C671.784 312.669 675.558 312.667 679.331 312.666C680.737 312.665 680.738 312.666 682.173 312.665C697.359 312.659 712.546 312.64 727.732 312.616C743.336 312.592 758.939 312.579 774.543 312.576C783.299 312.575 792.055 312.569 800.812 312.55C808.269 312.534 815.726 312.528 823.184 312.535C826.985 312.538 830.787 312.537 834.59 312.522C838.72 312.507 842.849 312.515 846.98 312.524H846.985C848.171 312.516 849.357 312.508 850.578 312.5Z" stroke="#9588F3"/>
</g>
<path d="M868.578 295.5C882.098 295.576 892.283 298.236 901.915 305.111H901.916C907.856 309.798 911.096 315.621 911.113 321.925V321.926L911.127 324.226C911.127 325.437 911.126 325.507 911.126 326.745V326.747C911.13 327.633 911.134 328.518 911.138 329.431C911.147 331.889 911.152 334.346 911.154 336.805V336.806L911.176 344.761C911.196 351.165 911.206 357.57 911.215 363.975L911.229 373.028C911.246 383.063 911.261 393.098 911.269 403.133C911.27 405.737 911.272 408.341 911.274 410.944C911.275 411.591 911.275 412.239 911.275 412.905C911.284 423.383 911.309 433.861 911.342 444.338C911.375 455.1 911.393 465.862 911.396 476.624C911.399 482.665 911.407 488.706 911.433 494.747C911.443 497.319 911.451 499.892 911.454 502.464L911.452 510.181C911.448 512.804 911.45 515.429 911.47 518.054C911.491 520.901 911.48 523.749 911.467 526.6V526.609C911.483 527.837 911.483 527.84 911.5 529.092C911.399 537.962 907.907 544.989 899.597 551.453C892.291 556.533 882.828 558.299 872.857 558.309H872.856C871.763 558.311 870.635 558.314 869.509 558.316C868.306 558.316 867.103 558.316 865.864 558.315H865.863C863.934 558.319 863.933 558.318 861.965 558.321C858.401 558.327 854.837 558.329 851.272 558.329H851.271C847.424 558.33 843.577 558.337 839.73 558.342C831.321 558.352 822.912 558.356 814.503 558.359C809.249 558.361 803.995 558.364 798.741 558.367C784.187 558.376 769.633 558.384 755.079 558.387C754.149 558.387 753.216 558.387 752.258 558.387C750.826 558.387 750.89 558.387 749.43 558.388C747.539 558.388 745.648 558.388 743.757 558.389H740.914C725.72 558.392 710.527 558.405 695.333 558.422C679.724 558.439 664.114 558.448 648.505 558.449C639.745 558.45 630.985 558.454 622.225 558.468C614.765 558.479 607.305 558.483 599.845 558.477C596.041 558.474 592.238 558.474 588.434 558.484C584.303 558.496 580.173 558.49 576.041 558.482H576.037C574.848 558.488 573.66 558.493 572.435 558.499C559.023 558.441 549.144 556.34 539.169 549.777C531.349 543.78 529.42 536.08 529.535 527.998V527.987L529.514 525.25C529.499 522.771 529.507 520.292 529.524 517.812V517.811C529.538 515.121 529.521 512.431 529.51 509.746C529.491 504.496 529.501 499.245 529.519 493.993C529.533 489.722 529.537 485.451 529.533 481.181C529.532 480.268 529.532 480.267 529.531 479.335C529.53 478.097 529.529 476.86 529.528 475.622C529.52 464.695 529.537 453.769 529.566 442.842C529.595 432.249 529.602 421.656 529.587 411.062C529.57 399.513 529.566 387.964 529.583 376.415C529.585 375.183 529.587 373.95 529.589 372.718C529.59 372.11 529.591 371.506 529.592 370.88C529.597 366.616 529.594 362.352 529.587 358.088C529.579 352.891 529.586 347.695 529.611 342.498C529.624 339.848 529.63 337.196 529.619 334.544C529.607 331.671 529.626 328.797 529.648 325.921V325.912C529.64 325.085 529.631 324.257 529.623 323.405C529.731 315.802 532.806 309.518 539.954 303.877C547.849 298.576 556.663 295.966 567.251 295.794L568.282 295.784C569.386 295.781 570.491 295.778 571.628 295.774C572.83 295.775 574.033 295.775 575.271 295.775H575.272C576.558 295.773 577.844 295.769 579.169 295.767C582.731 295.759 586.293 295.757 589.855 295.755C593.701 295.752 597.546 295.745 601.391 295.738C610.672 295.724 619.954 295.717 629.236 295.71C633.611 295.707 637.986 295.703 642.361 295.699C656.911 295.687 671.461 295.675 686.011 295.67C689.784 295.669 693.558 295.667 697.331 295.666C698.737 295.665 698.738 295.666 700.173 295.665C715.359 295.659 730.546 295.64 745.732 295.616C761.336 295.592 776.939 295.579 792.543 295.576C801.299 295.575 810.055 295.569 818.812 295.55C826.269 295.534 833.726 295.528 841.184 295.535C844.985 295.538 848.787 295.537 852.59 295.522C856.72 295.507 860.849 295.515 864.98 295.524H864.985C866.171 295.516 867.357 295.508 868.578 295.5Z" fill="url(#paint27_linear_199_404)" stroke="#8D7EFF"/>
<g clip-path="url(#clip1_199_404)">
<g filter="url(#filter18_d_199_404)">
<path d="M642.817 448.559V410.37H677.089V449.12L659.623 434.789L642.817 448.559Z" fill="white"/>
<path d="M617.836 448.83C614.479 448.83 611.49 448.255 608.869 447.106C606.248 445.956 604.178 444.393 602.661 442.416C601.143 440.392 600.293 438.139 600.109 435.656H611.766C611.904 436.989 612.524 438.07 613.628 438.898C614.732 439.725 616.088 440.139 617.698 440.139C619.169 440.139 620.296 439.863 621.077 439.312C621.905 438.714 622.319 437.955 622.319 437.035C622.319 435.932 621.744 435.127 620.595 434.621C619.445 434.069 617.583 433.472 615.008 432.828C612.248 432.184 609.949 431.517 608.11 430.827C606.271 430.092 604.684 428.965 603.351 427.448C602.017 425.884 601.35 423.792 601.35 421.171C601.35 418.964 601.948 416.963 603.144 415.17C604.385 413.331 606.179 411.882 608.524 410.824C610.915 409.767 613.743 409.238 617.008 409.238C621.836 409.238 625.63 410.434 628.389 412.825C631.194 415.216 632.803 418.389 633.217 422.343H622.319C622.135 421.01 621.537 419.952 620.526 419.171C619.56 418.389 618.272 417.998 616.663 417.998C615.283 417.998 614.226 418.274 613.49 418.826C612.754 419.331 612.386 420.044 612.386 420.964C612.386 422.068 612.961 422.895 614.111 423.447C615.306 423.999 617.146 424.551 619.629 425.102C622.48 425.838 624.802 426.574 626.596 427.31C628.389 427.999 629.952 429.149 631.286 430.759C632.665 432.322 633.378 434.437 633.424 437.104C633.424 439.358 632.78 441.381 631.493 443.174C630.251 444.922 628.435 446.301 626.044 447.313C623.699 448.324 620.962 448.83 617.836 448.83Z" fill="white"/>
<path d="M693.05 401.609C690.981 401.609 689.28 401.011 687.946 399.815C686.659 398.574 686.015 397.056 686.015 395.263C686.015 393.424 686.659 391.906 687.946 390.711C689.28 389.469 690.981 388.848 693.05 388.848C695.074 388.848 696.729 389.469 698.017 390.711C699.35 391.906 700.017 393.424 700.017 395.263C700.017 397.056 699.35 398.574 698.017 399.815C696.729 401.011 695.074 401.609 693.05 401.609ZM698.913 409.79V448.278H687.118V409.79H698.913Z" fill="white"/>
<path d="M719.256 415.239C720.406 413.445 721.992 411.997 724.015 410.893C726.039 409.79 728.407 409.238 731.12 409.238C734.293 409.238 737.167 410.043 739.742 411.652C742.317 413.262 744.34 415.561 745.812 418.55C747.329 421.539 748.088 425.011 748.088 428.965C748.088 432.92 747.329 436.415 745.812 439.45C744.34 442.438 742.317 444.761 739.742 446.416C737.167 448.026 734.293 448.83 731.12 448.83C728.453 448.83 726.085 448.278 724.015 447.175C721.992 446.071 720.406 444.646 719.256 442.898V466.626H707.461V409.79H719.256V415.239ZM736.086 428.965C736.086 426.022 735.258 423.723 733.603 422.068C731.994 420.366 729.993 419.515 727.602 419.515C725.257 419.515 723.257 420.366 721.601 422.068C719.992 423.769 719.187 426.091 719.187 429.034C719.187 431.977 719.992 434.299 721.601 436.001C723.257 437.702 725.257 438.553 727.602 438.553C729.947 438.553 731.948 437.702 733.603 436.001C735.258 434.253 736.086 431.908 736.086 428.965Z" fill="white"/>
<path d="M766.071 415.239C767.22 413.445 768.807 411.997 770.83 410.893C772.853 409.79 775.222 409.238 777.935 409.238C781.108 409.238 783.982 410.043 786.557 411.652C789.132 413.262 791.155 415.561 792.627 418.55C794.144 421.539 794.903 425.011 794.903 428.965C794.903 432.92 794.144 436.415 792.627 439.45C791.155 442.438 789.132 444.761 786.557 446.416C783.982 448.026 781.108 448.83 777.935 448.83C775.268 448.83 772.899 448.278 770.83 447.175C768.807 446.071 767.22 444.646 766.071 442.898V466.626H754.276V409.79H766.071V415.239ZM782.901 428.965C782.901 426.022 782.073 423.723 780.418 422.068C778.808 420.366 776.808 419.515 774.417 419.515C772.072 419.515 770.071 420.366 768.416 422.068C766.807 423.769 766.002 426.091 766.002 429.034C766.002 431.977 766.807 434.299 768.416 436.001C770.071 437.702 772.072 438.553 774.417 438.553C776.762 438.553 778.762 437.702 780.418 436.001C782.073 434.253 782.901 431.908 782.901 428.965Z" fill="white"/>
<path d="M812.886 409.79V448.278H801.091V409.79H812.886Z" fill="white"/>
<path d="M842.885 438.277V448.278H836.884C832.608 448.278 829.274 447.244 826.883 445.175C824.491 443.059 823.296 439.633 823.296 434.897V419.584H818.605V409.79H823.296V400.409H835.091V409.79H842.816V419.584H835.091V435.035C835.091 436.185 835.367 437.012 835.918 437.518C836.47 438.024 837.39 438.277 838.677 438.277H842.885Z" fill="white"/>
</g>
<path d="M804.7 387.96C810.014 386.929 814.245 388.463 816.922 394.149C817.586 397.057 817.453 398.791 816.922 400.338C816.391 401.886 814.044 405.076 810.545 407.042L814.264 410.653H804.312L797.792 402.401C796.443 400.284 796.198 397.759 796.729 395.697C797.26 393.634 799.386 388.992 804.7 387.96ZM807.094 391.841C803.631 391.841 800.823 394.415 800.823 397.589C800.823 400.764 803.63 403.337 807.094 403.337C810.557 403.337 813.364 400.764 813.364 397.589C813.364 394.415 810.556 391.841 807.094 391.841Z" fill="white"/>
<line x1="683.136" y1="398.72" x2="683.136" y2="404.768" stroke="white" stroke-width="2.016"/>
<line x1="682.129" y1="403.76" x2="688.177" y2="403.76" stroke="white" stroke-width="2.016"/>
<line y1="-1.008" x2="6.05453" y2="-1.008" transform="matrix(0 -1 -1 0 682.554 392.671)" stroke="white" stroke-width="2.016"/>
<line y1="-1.008" x2="6.048" y2="-1.008" transform="matrix(1 0 0 -1 682.554 386.617)" stroke="white" stroke-width="2.016"/>
<line x1="702.289" y1="392.671" x2="702.289" y2="386.623" stroke="white" stroke-width="2.016"/>
<line x1="703.297" y1="387.631" x2="697.249" y2="387.631" stroke="white" stroke-width="2.016"/>
<line y1="-1.008" x2="6.048" y2="-1.008" transform="matrix(0 1 1 0 703.297 398.72)" stroke="white" stroke-width="2.016"/>
<line y1="-1.008" x2="6.048" y2="-1.008" transform="matrix(-1 0 0 1 703.297 404.768)" stroke="white" stroke-width="2.016"/>
</g>
</g>
<defs>
<filter id="filter0_d_199_404" x="-80" y="-80" width="466" height="416.5" filterUnits="userSpaceOnUse" color-interpolation-filters="sRGB">
<feFlood flood-opacity="0" result="BackgroundImageFix"/>
<feColorMatrix in="SourceAlpha" type="matrix" values="0 0 0 0 0 0 0 0 0 0 0 0 0 0 0 0 0 0 127 0" result="hardAlpha"/>
<feOffset/>
<feGaussianBlur stdDeviation="40"/>
<feComposite in2="hardAlpha" operator="out"/>
<feColorMatrix type="matrix" values="0 0 0 0 0.827451 0 0 0 0 0.878431 0 0 0 0 0.992157 0 0 0 0.5 0"/>
<feBlend mode="normal" in2="BackgroundImageFix" result="effect1_dropShadow_199_404"/>
<feBlend mode="normal" in="SourceGraphic" in2="effect1_dropShadow_199_404" result="shape"/>
</filter>
<filter id="filter1_d_199_404" x="351" y="154" width="72.15" height="72.7002" filterUnits="userSpaceOnUse" color-interpolation-filters="sRGB">
<feFlood flood-opacity="0" result="BackgroundImageFix"/>
<feColorMatrix in="SourceAlpha" type="matrix" values="0 0 0 0 0 0 0 0 0 0 0 0 0 0 0 0 0 0 127 0" result="hardAlpha"/>
<feOffset/>
<feGaussianBlur stdDeviation="2.5"/>
<feComposite in2="hardAlpha" operator="out"/>
<feColorMatrix type="matrix" values="0 0 0 0 0.737255 0 0 0 0 0.74902 0 0 0 0 0.992157 0 0 0 0.4 0"/>
<feBlend mode="normal" in2="BackgroundImageFix" result="effect1_dropShadow_199_404"/>
<feBlend mode="normal" in="SourceGraphic" in2="effect1_dropShadow_199_404" result="shape"/>
</filter>
<filter id="filter2_d_199_404" x="1026.21" y="405.27" width="57.72" height="58.1602" filterUnits="userSpaceOnUse" color-interpolation-filters="sRGB">
<feFlood flood-opacity="0" result="BackgroundImageFix"/>
<feColorMatrix in="SourceAlpha" type="matrix" values="0 0 0 0 0 0 0 0 0 0 0 0 0 0 0 0 0 0 127 0" result="hardAlpha"/>
<feOffset/>
<feGaussianBlur stdDeviation="2"/>
<feComposite in2="hardAlpha" operator="out"/>
<feColorMatrix type="matrix" values="0 0 0 0 0.737255 0 0 0 0 0.74902 0 0 0 0 0.992157 0 0 0 0.4 0"/>
<feBlend mode="normal" in2="BackgroundImageFix" result="effect1_dropShadow_199_404"/>
<feBlend mode="normal" in="SourceGraphic" in2="effect1_dropShadow_199_404" result="shape"/>
</filter>
<filter id="filter3_d_199_404" x="945" y="236" width="57.72" height="58.1602" filterUnits="userSpaceOnUse" color-interpolation-filters="sRGB">
<feFlood flood-opacity="0" result="BackgroundImageFix"/>
<feColorMatrix in="SourceAlpha" type="matrix" values="0 0 0 0 0 0 0 0 0 0 0 0 0 0 0 0 0 0 127 0" result="hardAlpha"/>
<feOffset/>
<feGaussianBlur stdDeviation="2"/>
<feComposite in2="hardAlpha" operator="out"/>
<feColorMatrix type="matrix" values="0 0 0 0 0.737255 0 0 0 0 0.74902 0 0 0 0 0.992157 0 0 0 0.4 0"/>
<feBlend mode="normal" in2="BackgroundImageFix" result="effect1_dropShadow_199_404"/>
<feBlend mode="normal" in="SourceGraphic" in2="effect1_dropShadow_199_404" result="shape"/>
</filter>
<filter id="filter4_d_199_404" x="914.228" y="616.184" width="69.2641" height="69.7924" filterUnits="userSpaceOnUse" color-interpolation-filters="sRGB">
<feFlood flood-opacity="0" result="BackgroundImageFix"/>
<feColorMatrix in="SourceAlpha" type="matrix" values="0 0 0 0 0 0 0 0 0 0 0 0 0 0 0 0 0 0 127 0" result="hardAlpha"/>
<feOffset/>
<feGaussianBlur stdDeviation="2.4"/>
<feComposite in2="hardAlpha" operator="out"/>
<feColorMatrix type="matrix" values="0 0 0 0 0.737255 0 0 0 0 0.74902 0 0 0 0 0.992157 0 0 0 0.4 0"/>
<feBlend mode="normal" in2="BackgroundImageFix" result="effect1_dropShadow_199_404"/>
<feBlend mode="normal" in="SourceGraphic" in2="effect1_dropShadow_199_404" result="shape"/>
</filter>
<filter id="filter5_d_199_404" x="1280.2" y="243.2" width="69.2641" height="69.7919" filterUnits="userSpaceOnUse" color-interpolation-filters="sRGB">
<feFlood flood-opacity="0" result="BackgroundImageFix"/>
<feColorMatrix in="SourceAlpha" type="matrix" values="0 0 0 0 0 0 0 0 0 0 0 0 0 0 0 0 0 0 127 0" result="hardAlpha"/>
<feOffset/>
<feGaussianBlur stdDeviation="2.4"/>
<feComposite in2="hardAlpha" operator="out"/>
<feColorMatrix type="matrix" values="0 0 0 0 0.737255 0 0 0 0 0.74902 0 0 0 0 0.992157 0 0 0 0.4 0"/>
<feBlend mode="normal" in2="BackgroundImageFix" result="effect1_dropShadow_199_404"/>
<feBlend mode="normal" in="SourceGraphic" in2="effect1_dropShadow_199_404" result="shape"/>
</filter>
<filter id="filter6_d_199_404" x="305" y="231" width="71" height="71" filterUnits="userSpaceOnUse" color-interpolation-filters="sRGB">
<feFlood flood-opacity="0" result="BackgroundImageFix"/>
<feColorMatrix in="SourceAlpha" type="matrix" values="0 0 0 0 0 0 0 0 0 0 0 0 0 0 0 0 0 0 127 0" result="hardAlpha"/>
<feMorphology radius="4" operator="dilate" in="SourceAlpha" result="effect1_dropShadow_199_404"/>
<feOffset/>
<feGaussianBlur stdDeviation="10"/>
<feComposite in2="hardAlpha" operator="out"/>
<feColorMatrix type="matrix" values="0 0 0 0 0.694118 0 0 0 0 0.721569 0 0 0 0 0.976471 0 0 0 0.3 0"/>
<feBlend mode="normal" in2="BackgroundImageFix" result="effect1_dropShadow_199_404"/>
<feBlend mode="normal" in="SourceGraphic" in2="effect1_dropShadow_199_404" result="shape"/>
</filter>
<filter id="filter7_d_199_404" x="563" y="641" width="71" height="71" filterUnits="userSpaceOnUse" color-interpolation-filters="sRGB">
<feFlood flood-opacity="0" result="BackgroundImageFix"/>
<feColorMatrix in="SourceAlpha" type="matrix" values="0 0 0 0 0 0 0 0 0 0 0 0 0 0 0 0 0 0 127 0" result="hardAlpha"/>
<feMorphology radius="4" operator="dilate" in="SourceAlpha" result="effect1_dropShadow_199_404"/>
<feOffset/>
<feGaussianBlur stdDeviation="10"/>
<feComposite in2="hardAlpha" operator="out"/>
<feColorMatrix type="matrix" values="0 0 0 0 0.694118 0 0 0 0 0.721569 0 0 0 0 0.976471 0 0 0 0.3 0"/>
<feBlend mode="normal" in2="BackgroundImageFix" result="effect1_dropShadow_199_404"/>
<feBlend mode="normal" in="SourceGraphic" in2="effect1_dropShadow_199_404" result="shape"/>
</filter>
<filter id="filter8_d_199_404" x="1151.2" y="309.2" width="85.2" height="85.2001" filterUnits="userSpaceOnUse" color-interpolation-filters="sRGB">
<feFlood flood-opacity="0" result="BackgroundImageFix"/>
<feColorMatrix in="SourceAlpha" type="matrix" values="0 0 0 0 0 0 0 0 0 0 0 0 0 0 0 0 0 0 127 0" result="hardAlpha"/>
<feMorphology radius="4.8" operator="dilate" in="SourceAlpha" result="effect1_dropShadow_199_404"/>
<feOffset/>
<feGaussianBlur stdDeviation="12"/>
<feComposite in2="hardAlpha" operator="out"/>
<feColorMatrix type="matrix" values="0 0 0 0 0.694118 0 0 0 0 0.721569 0 0 0 0 0.976471 0 0 0 0.3 0"/>
<feBlend mode="normal" in2="BackgroundImageFix" result="effect1_dropShadow_199_404"/>
<feBlend mode="normal" in="SourceGraphic" in2="effect1_dropShadow_199_404" result="shape"/>
</filter>
<filter id="filter9_d_199_404" x="213" y="185" width="74" height="74" filterUnits="userSpaceOnUse" color-interpolation-filters="sRGB">
<feFlood flood-opacity="0" result="BackgroundImageFix"/>
<feColorMatrix in="SourceAlpha" type="matrix" values="0 0 0 0 0 0 0 0 0 0 0 0 0 0 0 0 0 0 127 0" result="hardAlpha"/>
<feMorphology radius="2" operator="dilate" in="SourceAlpha" result="effect1_dropShadow_199_404"/>
<feOffset/>
<feGaussianBlur stdDeviation="12"/>
<feComposite in2="hardAlpha" operator="out"/>
<feColorMatrix type="matrix" values="0 0 0 0 0.819608 0 0 0 0 0.839216 0 0 0 0 1 0 0 0 0.8 0"/>
<feBlend mode="normal" in2="BackgroundImageFix" result="effect1_dropShadow_199_404"/>
<feBlend mode="normal" in="SourceGraphic" in2="effect1_dropShadow_199_404" result="shape"/>
</filter>
<filter id="filter10_d_199_404" x="679" y="700" width="74" height="74" filterUnits="userSpaceOnUse" color-interpolation-filters="sRGB">
<feFlood flood-opacity="0" result="BackgroundImageFix"/>
<feColorMatrix in="SourceAlpha" type="matrix" values="0 0 0 0 0 0 0 0 0 0 0 0 0 0 0 0 0 0 127 0" result="hardAlpha"/>
<feMorphology radius="2" operator="dilate" in="SourceAlpha" result="effect1_dropShadow_199_404"/>
<feOffset/>
<feGaussianBlur stdDeviation="12"/>
<feComposite in2="hardAlpha" operator="out"/>
<feColorMatrix type="matrix" values="0 0 0 0 0.819608 0 0 0 0 0.839216 0 0 0 0 1 0 0 0 0.8 0"/>
<feBlend mode="normal" in2="BackgroundImageFix" result="effect1_dropShadow_199_404"/>
<feBlend mode="normal" in="SourceGraphic" in2="effect1_dropShadow_199_404" result="shape"/>
</filter>
<filter id="filter11_d_199_404" x="1237" y="509" width="74" height="74" filterUnits="userSpaceOnUse" color-interpolation-filters="sRGB">
<feFlood flood-opacity="0" result="BackgroundImageFix"/>
<feColorMatrix in="SourceAlpha" type="matrix" values="0 0 0 0 0 0 0 0 0 0 0 0 0 0 0 0 0 0 127 0" result="hardAlpha"/>
<feMorphology radius="2" operator="dilate" in="SourceAlpha" result="effect1_dropShadow_199_404"/>
<feOffset/>
<feGaussianBlur stdDeviation="12"/>
<feComposite in2="hardAlpha" operator="out"/>
<feColorMatrix type="matrix" values="0 0 0 0 0.819608 0 0 0 0 0.839216 0 0 0 0 1 0 0 0 0.8 0"/>
<feBlend mode="normal" in2="BackgroundImageFix" result="effect1_dropShadow_199_404"/>
<feBlend mode="normal" in="SourceGraphic" in2="effect1_dropShadow_199_404" result="shape"/>
</filter>
<filter id="filter12_d_199_404" x="-70" y="312" width="257.548" height="567.665" filterUnits="userSpaceOnUse" color-interpolation-filters="sRGB">
<feFlood flood-opacity="0" result="BackgroundImageFix"/>
<feColorMatrix in="SourceAlpha" type="matrix" values="0 0 0 0 0 0 0 0 0 0 0 0 0 0 0 0 0 0 127 0" result="hardAlpha"/>
<feOffset/>
<feGaussianBlur stdDeviation="35"/>
<feComposite in2="hardAlpha" operator="out"/>
<feColorMatrix type="matrix" values="0 0 0 0 0.941176 0 0 0 0 0.945098 0 0 0 0 0.996078 0 0 0 1 0"/>
<feBlend mode="normal" in2="BackgroundImageFix" result="effect1_dropShadow_199_404"/>
<feBlend mode="normal" in="SourceGraphic" in2="effect1_dropShadow_199_404" result="shape"/>
</filter>
<filter id="filter13_d_199_404" x="1016" y="587" width="458" height="364" filterUnits="userSpaceOnUse" color-interpolation-filters="sRGB">
<feFlood flood-opacity="0" result="BackgroundImageFix"/>
<feColorMatrix in="SourceAlpha" type="matrix" values="0 0 0 0 0 0 0 0 0 0 0 0 0 0 0 0 0 0 127 0" result="hardAlpha"/>
<feOffset/>
<feGaussianBlur stdDeviation="32"/>
<feComposite in2="hardAlpha" operator="out"/>
<feColorMatrix type="matrix" values="0 0 0 0 0.827451 0 0 0 0 0.878431 0 0 0 0 0.992157 0 0 0 0.5 0"/>
<feBlend mode="normal" in2="BackgroundImageFix" result="effect1_dropShadow_199_404"/>
<feBlend mode="normal" in="SourceGraphic" in2="effect1_dropShadow_199_404" result="shape"/>
</filter>
<filter id="filter14_d_199_404" x="1057.42" y="484.42" width="153.045" height="152.564" filterUnits="userSpaceOnUse" color-interpolation-filters="sRGB">
<feFlood flood-opacity="0" result="BackgroundImageFix"/>
<feColorMatrix in="SourceAlpha" type="matrix" values="0 0 0 0 0 0 0 0 0 0 0 0 0 0 0 0 0 0 127 0" result="hardAlpha"/>
<feOffset dx="7.776" dy="7.776"/>
<feGaussianBlur stdDeviation="11.178"/>
<feComposite in2="hardAlpha" operator="out"/>
<feColorMatrix type="matrix" values="0 0 0 0 0.905882 0 0 0 0 0.835294 0 0 0 0 0.988235 0 0 0 1 0"/>
<feBlend mode="normal" in2="BackgroundImageFix" result="effect1_dropShadow_199_404"/>
<feBlend mode="normal" in="SourceGraphic" in2="effect1_dropShadow_199_404" result="shape"/>
</filter>
<filter id="filter15_d_199_404" x="1002.76" y="142.418" width="135.414" height="147.115" filterUnits="userSpaceOnUse" color-interpolation-filters="sRGB">
<feFlood flood-opacity="0" result="BackgroundImageFix"/>
<feColorMatrix in="SourceAlpha" type="matrix" values="0 0 0 0 0 0 0 0 0 0 0 0 0 0 0 0 0 0 127 0" result="hardAlpha"/>
<feOffset dx="4.8" dy="4.8"/>
<feGaussianBlur stdDeviation="12"/>
<feComposite in2="hardAlpha" operator="out"/>
<feColorMatrix type="matrix" values="0 0 0 0 0.784314 0 0 0 0 0.8 0 0 0 0 0.976471 0 0 0 1 0"/>
<feBlend mode="normal" in2="BackgroundImageFix" result="effect1_dropShadow_199_404"/>
<feBlend mode="normal" in="SourceGraphic" in2="effect1_dropShadow_199_404" result="shape"/>
</filter>
<filter id="filter16_d_199_404" x="462" y="313" width="433" height="314" filterUnits="userSpaceOnUse" color-interpolation-filters="sRGB">
<feFlood flood-opacity="0" result="BackgroundImageFix"/>
<feColorMatrix in="SourceAlpha" type="matrix" values="0 0 0 0 0 0 0 0 0 0 0 0 0 0 0 0 0 0 127 0" result="hardAlpha"/>
<feOffset dx="-10" dy="10"/>
<feGaussianBlur stdDeviation="12.5"/>
<feComposite in2="hardAlpha" operator="out"/>
<feColorMatrix type="matrix" values="0 0 0 0 0.636218 0 0 0 0 0.669289 0 0 0 0 1 0 0 0 1 0"/>
<feBlend mode="normal" in2="BackgroundImageFix" result="effect1_dropShadow_199_404"/>
<feBlend mode="normal" in="SourceGraphic" in2="effect1_dropShadow_199_404" result="shape"/>
</filter>
<filter id="filter17_d_199_404" x="485" y="290" width="431" height="312" filterUnits="userSpaceOnUse" color-interpolation-filters="sRGB">
<feFlood flood-opacity="0" result="BackgroundImageFix"/>
<feColorMatrix in="SourceAlpha" type="matrix" values="0 0 0 0 0 0 0 0 0 0 0 0 0 0 0 0 0 0 127 0" result="hardAlpha"/>
<feOffset dx="-2" dy="2"/>
<feGaussianBlur stdDeviation="12"/>
<feComposite in2="hardAlpha" operator="out"/>
<feColorMatrix type="matrix" values="0 0 0 0 0.713726 0 0 0 0 0.737255 0 0 0 0 0.972549 0 0 0 1 0"/>
<feBlend mode="normal" in2="BackgroundImageFix" result="effect1_dropShadow_199_404"/>
<feBlend mode="normal" in="SourceGraphic" in2="effect1_dropShadow_199_404" result="shape"/>
</filter>
<filter id="filter18_d_199_404" x="592.109" y="384.848" width="258.776" height="93.7778" filterUnits="userSpaceOnUse" color-interpolation-filters="sRGB">
<feFlood flood-opacity="0" result="BackgroundImageFix"/>
<feColorMatrix in="SourceAlpha" type="matrix" values="0 0 0 0 0 0 0 0 0 0 0 0 0 0 0 0 0 0 127 0" result="hardAlpha"/>
<feOffset dy="4"/>
<feGaussianBlur stdDeviation="4"/>
<feComposite in2="hardAlpha" operator="out"/>
<feColorMatrix type="matrix" values="0 0 0 0 0.461345 0 0 0 0 0.403361 0 0 0 0 0.908654 0 0 0 1 0"/>
<feBlend mode="normal" in2="BackgroundImageFix" result="effect1_dropShadow_199_404"/>
<feBlend mode="normal" in="SourceGraphic" in2="effect1_dropShadow_199_404" result="shape"/>
</filter>
<radialGradient id="paint0_radial_199_404" cx="0" cy="0" r="1" gradientUnits="userSpaceOnUse" gradientTransform="translate(705 480) rotate(109.925) scale(419.618 667.036)">
<stop offset="0.485577" stop-color="#FCFBFD"/>
<stop offset="1" stop-color="#F2F0FD"/>
</radialGradient>
<linearGradient id="paint1_linear_199_404" x1="283" y1="-3.00048" x2="-0.500025" y2="256.5" gradientUnits="userSpaceOnUse">
<stop stop-color="#F1F2FD"/>
<stop offset="0.476748" stop-color="#EDEFFD"/>
<stop offset="1" stop-color="#DCE6FD"/>
</linearGradient>
<linearGradient id="paint2_linear_199_404" x1="209" y1="9.71556e-06" x2="2.48755e-05" y2="163" gradientUnits="userSpaceOnUse">
<stop stop-color="#EEEFFE"/>
<stop offset="0.56614" stop-color="#E4E9FD"/>
<stop offset="1" stop-color="#CEDDFD"/>
</linearGradient>
<linearGradient id="paint3_linear_199_404" x1="1312.5" y1="-2.61911e-06" x2="1257" y2="210" gradientUnits="userSpaceOnUse">
<stop stop-color="#F4F2FD"/>
<stop offset="0.639423" stop-color="#ECE8FD"/>
<stop offset="1" stop-color="#E4D7FF"/>
</linearGradient>
<linearGradient id="paint4_linear_199_404" x1="1377" y1="1.75598e-06" x2="1327" y2="163" gradientUnits="userSpaceOnUse">
<stop stop-color="#EDEBFD"/>
<stop offset="0.43208" stop-color="#E9E5FC"/>
<stop offset="1" stop-color="#D6D2FF"/>
</linearGradient>
<linearGradient id="paint5_linear_199_404" x1="387.35" y1="176.6" x2="386.8" y2="201.35" gradientUnits="userSpaceOnUse">
<stop stop-color="#D5D8FC"/>
<stop offset="0.49668" stop-color="#CED0FB"/>
<stop offset="1" stop-color="#BCBFFD"/>
</linearGradient>
<linearGradient id="paint6_linear_199_404" x1="1055.29" y1="423.35" x2="1054.85" y2="443.15" gradientUnits="userSpaceOnUse">
<stop stop-color="#D5D8FC"/>
<stop offset="0.49668" stop-color="#CED0FB"/>
<stop offset="1" stop-color="#BCBFFD"/>
</linearGradient>
<linearGradient id="paint7_linear_199_404" x1="949.124" y1="637.88" x2="948.596" y2="661.64" gradientUnits="userSpaceOnUse">
<stop stop-color="#D5D8FC"/>
<stop offset="0.49668" stop-color="#BCBFFF"/>
<stop offset="1" stop-color="#AFB3FF"/>
</linearGradient>
<linearGradient id="paint8_linear_199_404" x1="1315.1" y1="264.896" x2="1314.57" y2="288.656" gradientUnits="userSpaceOnUse">
<stop stop-color="#D5D8FC"/>
<stop offset="0.49668" stop-color="#BCBFFF"/>
<stop offset="1" stop-color="#AFB3FF"/>
</linearGradient>
<radialGradient id="paint9_radial_199_404" cx="0" cy="0" r="1" gradientUnits="userSpaceOnUse" gradientTransform="translate(340.5 266.5) rotate(88.2643) scale(16.5076)">
<stop offset="0.33" stop-color="#B1B8F9"/>
<stop offset="0.846154" stop-color="#A4A9FA"/>
<stop offset="1" stop-color="#9092FB"/>
</radialGradient>
<radialGradient id="paint10_radial_199_404" cx="0" cy="0" r="1" gradientUnits="userSpaceOnUse" gradientTransform="translate(598.5 676.5) rotate(88.2643) scale(16.5076)">
<stop offset="0.33" stop-color="#B1B8F9"/>
<stop offset="0.846154" stop-color="#A4A9FA"/>
<stop offset="1" stop-color="#9092FB"/>
</radialGradient>
<radialGradient id="paint11_radial_199_404" cx="0" cy="0" r="1" gradientUnits="userSpaceOnUse" gradientTransform="translate(1193.8 351.8) rotate(88.2643) scale(19.8091)">
<stop offset="0.33" stop-color="#B1B8F9"/>
<stop offset="0.846154" stop-color="#A4A9FA"/>
<stop offset="1" stop-color="#9092FB"/>
</radialGradient>
<radialGradient id="paint12_radial_199_404" cx="0" cy="0" r="1" gradientUnits="userSpaceOnUse" gradientTransform="translate(250 222) rotate(90) scale(11)">
<stop stop-color="#DCDFFD"/>
<stop offset="1" stop-color="#CCD2FF"/>
</radialGradient>
<radialGradient id="paint13_radial_199_404" cx="0" cy="0" r="1" gradientUnits="userSpaceOnUse" gradientTransform="translate(716 737) rotate(90) scale(11)">
<stop stop-color="#DCDFFD"/>
<stop offset="1" stop-color="#CCD2FF"/>
</radialGradient>
<radialGradient id="paint14_radial_199_404" cx="0" cy="0" r="1" gradientUnits="userSpaceOnUse" gradientTransform="translate(1274 546) rotate(90) scale(11)">
<stop stop-color="#DCDFFD"/>
<stop offset="1" stop-color="#CCD2FF"/>
</radialGradient>
<linearGradient id="paint15_linear_199_404" x1="73.0931" y1="693.229" x2="325.792" y2="894.601" gradientUnits="userSpaceOnUse">
<stop stop-color="#F4F5FE"/>
<stop offset="1" stop-color="#E0E1FD"/>
</linearGradient>
<linearGradient id="paint16_linear_199_404" x1="1136" y1="635.5" x2="1236" y2="807" gradientUnits="userSpaceOnUse">
<stop stop-color="#F4F5FF"/>
<stop offset="1" stop-color="#D2D3FF"/>
</linearGradient>
<linearGradient id="paint17_linear_199_404" x1="132.89" y1="742.234" x2="132.89" y2="887" gradientUnits="userSpaceOnUse">
<stop stop-color="#E5E9FD"/>
<stop offset="1" stop-color="#D1D8FC"/>
</linearGradient>
<linearGradient id="paint18_linear_199_404" x1="78" y1="382" x2="-2.39698e-06" y2="726.5" gradientUnits="userSpaceOnUse">
<stop stop-color="#F6F6FD"/>
<stop offset="0.50445" stop-color="#E6EAFD"/>
<stop offset="1" stop-color="#D2DAFF"/>
</linearGradient>
<linearGradient id="paint19_linear_199_404" x1="30" y1="511" x2="-1.35491e-06" y2="698" gradientUnits="userSpaceOnUse">
<stop stop-color="#EEF1FF" stop-opacity="0"/>
<stop offset="0.481018" stop-color="#D3E1FF" stop-opacity="0.5"/>
<stop offset="1" stop-color="#B4BBFA" stop-opacity="0.8"/>
</linearGradient>
<linearGradient id="paint20_linear_199_404" x1="1152.5" y1="694" x2="1263.24" y2="820.838" gradientUnits="userSpaceOnUse">
<stop stop-color="#F8F6FF"/>
<stop offset="0.281163" stop-color="#EDEFFD"/>
<stop offset="1" stop-color="#DAD6FF"/>
</linearGradient>
<linearGradient id="paint21_linear_199_404" x1="1270.88" y1="766.711" x2="1389.68" y2="904.516" gradientUnits="userSpaceOnUse">
<stop stop-color="#EEEFFE"/>
<stop offset="0.425447" stop-color="#F1EAFF"/>
<stop offset="1" stop-color="#EBE1FF"/>
</linearGradient>
<linearGradient id="paint22_linear_199_404" x1="238.575" y1="326.404" x2="238.575" y2="405.67" gradientUnits="userSpaceOnUse">
<stop stop-color="#B1B8FA"/>
<stop offset="1" stop-color="#8585F8"/>
</linearGradient>
<linearGradient id="paint23_linear_199_404" x1="320.186" y1="553.332" x2="320.186" y2="627.787" gradientUnits="userSpaceOnUse">
<stop stop-color="#9E9DF4"/>
<stop offset="1" stop-color="#7D73FC"/>
</linearGradient>
<linearGradient id="paint24_linear_199_404" x1="322.054" y1="585.26" x2="322.054" y2="658.479" gradientUnits="userSpaceOnUse">
<stop stop-color="#9D9CF4"/>
<stop offset="1" stop-color="#7D74FC"/>
</linearGradient>
<linearGradient id="paint25_linear_199_404" x1="688.5" y1="328" x2="688.5" y2="592" gradientUnits="userSpaceOnUse">
<stop stop-color="#ABA1FF"/>
<stop offset="1" stop-color="#8577F2"/>
</linearGradient>
<linearGradient id="paint26_linear_199_404" x1="702.5" y1="312" x2="702.5" y2="576" gradientUnits="userSpaceOnUse">
<stop stop-color="#ABA1FF"/>
<stop offset="1" stop-color="#8577F2"/>
</linearGradient>
<linearGradient id="paint27_linear_199_404" x1="720.5" y1="295" x2="720.5" y2="559" gradientUnits="userSpaceOnUse">
<stop stop-color="#ABA1FF"/>
<stop offset="1" stop-color="#8577F2"/>
</linearGradient>
<clipPath id="clip0_199_404">
<rect width="1410" height="887" fill="white"/>
</clipPath>
<clipPath id="clip1_199_404">
<rect width="254.88" height="93.6" fill="white" transform="translate(594 380)"/>
</clipPath>
</defs>
</svg>
