<svg width="1410" height="887" viewBox="0 0 1410 887" fill="none" xmlns="http://www.w3.org/2000/svg">
<g clip-path="url(#clip0_187_412)">
<rect width="1410" height="887" fill="url(#paint0_radial_187_412)"/>
<g filter="url(#filter0_d_187_412)">
<path d="M0 256.5V0H306C250.993 81.4488 251.109 246.371 0 256.5Z" fill="url(#paint1_linear_187_412)"/>
</g>
<path d="M0 162.5V0H209C183.5 75 172 173.501 0 162.5Z" fill="url(#paint2_linear_187_412)"/>
<path d="M1410 256.5V0H1104C1159.01 81.4488 1158.89 246.371 1410 256.5Z" fill="url(#paint3_linear_187_412)"/>
<path d="M1410 162.5V0H1201C1226.5 75 1238 173.501 1410 162.5Z" fill="url(#paint4_linear_187_412)"/>
<g filter="url(#filter1_d_187_412)">
<path d="M356 191.45C379.063 189.249 384.99 181.382 386.8 159C389.102 184.512 396.618 190.771 418.15 191.45C395.437 194.337 388.509 200.907 386.8 221.7C383.472 200.195 377.39 192.834 356 191.45Z" fill="url(#paint5_linear_187_412)"/>
</g>
<g filter="url(#filter2_d_187_412)">
<path d="M1030.21 435.23C1048.67 433.469 1053.41 427.175 1054.85 409.27C1056.7 429.679 1062.71 434.687 1079.93 435.23C1061.76 437.54 1056.22 442.795 1054.85 459.43C1052.19 442.226 1047.33 436.337 1030.21 435.23Z" fill="url(#paint6_linear_187_412)"/>
</g>
<g filter="url(#filter3_d_187_412)">
<path d="M949 265.96C967.45 264.199 972.192 257.905 973.64 240C975.482 260.409 981.494 265.417 998.72 265.96C980.549 268.27 975.007 273.525 973.64 290.16C970.978 272.956 966.112 267.067 949 265.96Z" fill="white"/>
</g>
<g filter="url(#filter4_d_187_412)">
<path d="M919.028 652.136C941.168 650.023 946.858 642.471 948.596 620.984C950.806 645.475 958.021 651.485 978.692 652.136C956.887 654.908 950.237 661.215 948.596 681.176C945.401 660.532 939.563 653.465 919.028 652.136Z" fill="url(#paint7_linear_187_412)"/>
</g>
<g filter="url(#filter5_d_187_412)">
<path d="M1285 279.152C1307.14 277.039 1312.83 269.486 1314.57 248C1316.78 272.491 1323.99 278.5 1344.66 279.152C1322.86 281.924 1316.21 288.23 1314.57 308.192C1311.37 287.547 1305.53 280.481 1285 279.152Z" fill="url(#paint8_linear_187_412)"/>
</g>
<g filter="url(#filter6_d_187_412)">
<circle cx="340.5" cy="266.5" r="11.5" fill="url(#paint9_radial_187_412)"/>
</g>
<g filter="url(#filter7_d_187_412)">
<circle cx="1193.8" cy="351.8" r="13.8" fill="url(#paint10_radial_187_412)"/>
</g>
<g filter="url(#filter8_d_187_412)">
<circle cx="250" cy="222" r="11" fill="url(#paint11_radial_187_412)"/>
</g>
<g filter="url(#filter9_d_187_412)">
<circle cx="1274" cy="546" r="11" fill="url(#paint12_radial_187_412)"/>
</g>
<path d="M0 887V698.16C232.5 563.5 307.5 827 535 887H0Z" fill="url(#paint13_linear_187_412)"/>
<path d="M1408 887V489C1244.04 742.291 716 735.5 680.652 887H1408Z" fill="url(#paint14_linear_187_412)"/>
<path d="M0 887V742.234C159.5 702 265.78 793.5 265.78 887L0 887Z" fill="url(#paint15_linear_187_412)"/>
<g filter="url(#filter10_d_187_412)">
<path d="M0.000150382 809.665C0.000150382 809.665 -0.000187978 339.17 0.000150382 385.165C0.000488742 431.161 104.433 482.613 116.5 598.665C128.567 714.717 33.144 802.626 0.000150382 809.665Z" fill="url(#paint16_linear_187_412)"/>
<path d="M0 511V698C0 698 51 681 60 615.5C69 550 0 511 0 511Z" fill="url(#paint17_linear_187_412)"/>
</g>
<circle cx="69.5" cy="392.5" r="10.5" fill="white"/>
<circle cx="1315.5" cy="383.5" r="10.5" fill="white"/>
<g filter="url(#filter11_d_187_412)">
<path d="M1410 651V887H1080.19C1072.01 702.456 1327.14 651 1410 651Z" fill="url(#paint18_linear_187_412)"/>
</g>
<path d="M1410 737.786V887H1187.2C1183.65 816.999 1226.64 727.685 1410 737.786Z" fill="url(#paint19_linear_187_412)"/>
<g filter="url(#filter12_d_187_412)">
<path d="M1157.49 508.377C1158.24 508.943 1159 509.51 1159.77 510.093C1160.39 510.519 1161 510.945 1161.63 511.384C1171.57 518.92 1177.53 531.239 1180.19 543.141C1180.93 560.747 1179.2 574.385 1167.12 588.278C1163.36 592.212 1159.48 595.584 1154.91 598.545C1154.26 598.984 1153.6 599.422 1152.93 599.874C1141.39 606.978 1126.62 608.157 1113.49 605.649C1098.1 601.317 1086.8 591.92 1078.8 578.243C1075.87 572.847 1073.99 568.726 1073.27 562.581C1072.94 562.26 1072.62 561.94 1072.29 561.609C1070.68 544.608 1075.76 529.627 1086.64 516.377C1104.4 496.852 1135.87 493.203 1157.49 508.377Z" fill="#988EF5"/>
</g>
<path d="M1089.79 524.672C1094.01 525.034 1097.64 526.839 1101.45 528.56C1101.01 530.525 1100.56 532.489 1100.12 534.453C1099.74 536.093 1099.74 536.093 1099.36 537.767C1098.54 541.202 1097.56 544.602 1096.59 548C1091.14 548 1085.69 548 1080.07 548C1081.28 539.743 1083.71 530.747 1089.79 524.672Z" fill="#E4DBFC"/>
<path d="M1080.07 553.832C1085.52 553.832 1090.98 553.832 1096.59 553.832C1097.5 561.365 1097.5 561.365 1097.79 563.718C1098.19 566.97 1098.67 570.108 1099.51 573.272C1098.12 574.09 1096.72 574.898 1095.32 575.702C1094.54 576.153 1093.76 576.604 1092.96 577.069C1090.76 578.132 1090.76 578.132 1087.85 578.132C1083.66 570.657 1080.07 562.547 1080.07 553.832Z" fill="#E3D3FB"/>
<path d="M1156.86 556.748C1161.67 556.748 1166.48 556.748 1171.44 556.748C1171.08 566.085 1168.82 572.344 1163.66 580.076C1159.4 579.58 1156.53 578.597 1152.97 576.188C1154.11 569.668 1155.38 563.2 1156.86 556.748Z" fill="#E5D2FB"/>
<path d="M1107.29 531.477C1109.31 531.778 1111.34 532.082 1113.36 532.388C1114.49 532.557 1115.62 532.726 1116.78 532.9C1119.92 533.421 1119.92 533.421 1123.81 534.393C1123.81 539.204 1123.81 544.015 1123.81 548.973C1116.75 548.973 1109.7 548.973 1102.43 548.973C1103.15 544.613 1103.98 541.06 1105.4 536.944C1105.75 535.914 1106.11 534.884 1106.47 533.823C1106.74 533.049 1107.01 532.274 1107.29 531.477Z" fill="#E1D3FB"/>
<path d="M1129.64 555.777C1136.38 555.777 1143.11 555.777 1150.05 555.777C1150.05 563.605 1150.05 563.605 1148.84 567.806C1148.61 568.635 1148.39 569.465 1148.15 570.319C1147.14 572.301 1147.14 572.301 1145.53 573.186C1142.18 573.314 1139.4 572.367 1136.2 571.39C1134.97 571.02 1133.75 570.651 1132.48 570.27C1131.54 569.978 1130.61 569.686 1129.64 569.385C1129.64 564.895 1129.64 560.404 1129.64 555.777Z" fill="#E7D5FC"/>
<path d="M1165.61 528.56C1170.96 535.497 1171.79 541.412 1172.41 549.944C1167.28 549.944 1162.14 549.944 1156.86 549.944C1156.74 548.361 1156.62 546.777 1156.49 545.145C1156.04 540.12 1155.14 535.4 1153.94 530.504C1155.15 529.985 1156.37 529.482 1157.59 528.986C1158.26 528.704 1158.94 528.422 1159.64 528.131C1162.07 527.495 1163.28 527.613 1165.61 528.56Z" fill="#E9D8FB"/>
<path d="M1102.43 554.805C1105.28 554.778 1108.14 554.759 1110.99 554.744C1111.8 554.736 1112.61 554.728 1113.45 554.719C1114.23 554.716 1115.01 554.713 1115.81 554.71C1116.89 554.702 1116.89 554.702 1117.98 554.694C1119.92 554.805 1119.92 554.805 1122.84 555.777C1122.84 560.267 1122.84 564.758 1122.84 569.385C1114.18 570.347 1114.18 570.347 1105.34 571.329C1102.43 558.085 1102.43 558.085 1102.43 554.805Z" fill="#E3D2FB"/>
<path d="M1147.14 532.448C1147.63 534.106 1148.12 535.767 1148.6 537.43C1148.87 538.354 1149.14 539.279 1149.42 540.232C1150.05 543.14 1150.05 543.14 1150.05 548.972C1143.64 548.972 1137.22 548.972 1130.61 548.972C1130.61 544.161 1130.61 539.349 1130.61 534.392C1143.86 532.448 1143.86 532.448 1147.14 532.448Z" fill="#E8D7FC"/>
<path d="M1130.61 509.12C1135.41 510.32 1136.17 511.771 1139.06 515.681C1139.82 516.699 1140.59 517.716 1141.38 518.764C1143.12 521.555 1143.97 523.363 1144.22 526.616C1143.25 527.588 1143.25 527.588 1140.39 527.683C1137.13 527.651 1133.87 527.62 1130.61 527.588C1130.61 521.494 1130.61 515.399 1130.61 509.12Z" fill="#E7DCFC"/>
<path d="M1124.78 508.148C1124.78 514.564 1124.78 520.979 1124.78 527.588C1117.56 526.626 1117.56 526.626 1110.2 525.644C1111.43 520.709 1118.56 508.148 1124.78 508.148Z" fill="#EAE0FD"/>
<path d="M1128.67 577.16C1133.16 577.802 1137.65 578.443 1142.28 579.104C1140.66 583.152 1139.82 584.879 1137.05 587.913C1136.45 588.576 1135.85 589.239 1135.23 589.921C1134.67 590.522 1134.11 591.122 1133.53 591.74C1132.79 592.542 1132.05 593.344 1131.28 594.17C1129.64 595.628 1129.64 595.628 1127.7 595.628C1128.02 589.534 1128.34 583.439 1128.67 577.16Z" fill="#DFCDFB"/>
<path d="M1121.87 577.161C1121.87 582.934 1121.87 588.708 1121.87 594.657C1118.3 592.874 1116.94 591.849 1114.45 588.946C1113.88 588.287 1113.31 587.628 1112.71 586.949C1110.39 583.921 1109.23 581.988 1109.23 578.133C1113.71 577.014 1116.95 577.161 1121.87 577.161Z" fill="#DFCCFA"/>
<path d="M1114.09 508.148C1114.09 509.111 1114.09 510.073 1114.09 511.064C1112.47 512.684 1110.85 514.304 1109.23 515.924C1107.79 518.138 1106.58 520.391 1105.34 522.728C1101.59 522.943 1099.03 522.343 1095.62 520.784C1095.97 518.139 1096.34 517.113 1098.4 515.344C1109.85 508.148 1109.85 508.148 1114.09 508.148Z" fill="#E4DFFC"/>
<path d="M1141.31 509.12C1145.04 510.491 1148.27 512.224 1151.63 514.345C1152.55 514.913 1153.46 515.482 1154.4 516.068C1156.75 517.789 1158.19 519.341 1159.77 521.756C1153.64 524.705 1153.64 524.705 1150.95 524.573C1148.23 523.304 1147.77 521.613 1146.59 518.901C1144.81 514.806 1144.81 514.806 1141.31 512.036C1141.31 511.074 1141.31 510.112 1141.31 509.12Z" fill="#EADFFC"/>
<path d="M1103.4 581.048C1105.02 583.379 1105.02 583.379 1106.5 586.272C1107.24 587.697 1107.24 587.697 1108 589.15C1109.23 591.74 1109.23 591.74 1110.2 594.656C1103.2 592.86 1096.8 588.999 1092.71 582.992C1100.04 579.466 1100.04 579.466 1103.4 581.048Z" fill="#DDCDFA"/>
<path d="M1149.08 582.02C1151.33 582.661 1153.57 583.303 1155.89 583.964C1155.89 585.247 1155.89 586.53 1155.89 587.852C1151.12 591.857 1145.4 594.315 1139.36 595.628C1139.74 595.134 1140.11 594.64 1140.5 594.132C1143.5 590.171 1146.37 586.183 1149.08 582.02Z" fill="#E2D5FC"/>
<path d="M1124.78 508.148C1124.78 514.564 1124.78 520.979 1124.78 527.588C1124.46 527.588 1124.14 527.588 1123.81 527.588C1123.49 522.456 1123.17 517.324 1122.84 512.036C1119.95 514.923 1117.06 517.81 1114.09 520.784C1114.09 516.874 1115.38 515.883 1117.98 513.008C1123.29 508.148 1123.29 508.148 1124.78 508.148Z" fill="#DBD6FC"/>
<path d="M1114.09 508.148C1114.09 509.111 1114.09 510.073 1114.09 511.064C1111.66 513.191 1111.66 513.191 1109.23 514.952C1108.59 513.349 1107.95 511.745 1107.29 510.092C1109.86 508.673 1111.07 508.148 1114.09 508.148Z" fill="#D5D3FA"/>
<g filter="url(#filter13_d_187_412)">
<mask id="path-42-inside-1_187_412" fill="white">
<path d="M552.3 211.387C553.405 211.382 554.509 211.378 555.648 211.373C556.851 211.373 558.054 211.374 559.294 211.374C560.58 211.37 561.866 211.366 563.192 211.363C566.756 211.353 570.32 211.349 573.884 211.346C577.731 211.342 581.578 211.333 585.425 211.324C594.711 211.304 603.998 211.294 613.284 211.285C617.661 211.281 622.039 211.276 626.416 211.27C640.972 211.253 655.529 211.239 670.086 211.232C673.861 211.23 677.636 211.228 681.411 211.226C682.819 211.225 682.819 211.225 684.254 211.224C699.448 211.216 714.642 211.191 729.835 211.158C745.447 211.125 761.058 211.107 776.669 211.104C785.43 211.102 794.19 211.093 802.95 211.068C810.411 211.046 817.873 211.038 825.334 211.047C829.137 211.052 832.94 211.05 836.743 211.031C840.877 211.01 845.01 211.02 849.144 211.033C850.331 211.022 851.519 211.011 852.742 211C866.354 211.104 876.658 214.749 886.405 224.212C892.438 230.68 895.78 238.777 895.797 247.602C895.802 248.634 895.806 249.666 895.811 250.729C895.811 252.426 895.81 252.426 895.81 254.159C895.814 255.362 895.818 256.566 895.821 257.806C895.83 261.149 895.835 264.491 895.838 267.834C895.842 271.439 895.851 275.044 895.86 278.649C895.88 287.356 895.89 296.063 895.899 304.771C895.903 308.874 895.908 312.976 895.914 317.079C895.931 330.722 895.945 344.365 895.952 358.009C895.954 361.549 895.956 365.088 895.958 368.628C895.959 369.508 895.959 370.388 895.96 371.295C895.968 385.538 895.993 399.782 896.026 414.026C896.059 428.658 896.077 443.289 896.08 457.921C896.082 466.133 896.091 474.345 896.117 482.557C896.138 489.552 896.146 496.548 896.137 503.543C896.132 507.109 896.134 510.675 896.153 514.241C896.174 518.117 896.164 521.992 896.151 525.868C896.167 527.539 896.167 527.539 896.184 529.243C896.084 541.544 892.505 551.293 884.073 560.201C876.642 567.229 867.051 569.639 857.023 569.652C855.918 569.656 854.813 569.66 853.674 569.664C852.47 569.663 851.266 569.662 850.026 569.661C848.095 569.666 848.095 569.666 846.125 569.67C842.559 569.678 838.993 569.68 835.427 569.681C831.578 569.683 827.729 569.69 823.88 569.697C815.467 569.711 807.054 569.717 798.64 569.721C793.384 569.724 788.128 569.728 782.872 569.733C768.31 569.745 753.749 569.755 739.188 569.759C738.257 569.759 737.325 569.759 736.365 569.759C734.965 569.76 734.965 569.76 733.536 569.76C731.644 569.76 729.752 569.761 727.86 569.761C726.921 569.761 725.983 569.762 725.016 569.762C709.815 569.766 694.614 569.783 679.414 569.807C663.797 569.83 648.18 569.843 632.562 569.844C623.798 569.845 615.034 569.851 606.27 569.869C598.806 569.884 591.342 569.889 583.878 569.881C580.073 569.877 576.268 569.878 572.463 569.892C568.33 569.907 564.196 569.899 560.062 569.888C558.872 569.897 557.681 569.905 556.455 569.913C542.969 569.834 532.977 566.958 522.886 557.931C514.88 549.6 512.918 538.882 513.035 527.756C513.028 526.528 513.021 525.3 513.013 524.034C512.999 520.659 513.007 517.286 513.024 513.912C513.038 510.259 513.022 506.607 513.01 502.955C512.992 495.814 513 488.674 513.018 481.533C513.032 475.728 513.036 469.923 513.033 464.117C513.032 462.875 513.032 462.875 513.031 461.608C513.03 459.925 513.029 458.243 513.028 456.56C513.02 441.704 513.036 426.848 513.066 411.991C513.095 397.591 513.102 383.19 513.087 368.79C513.07 353.088 513.066 337.386 513.083 321.684C513.085 320.008 513.087 318.333 513.089 316.657C513.09 315.833 513.091 315.009 513.092 314.159C513.097 308.363 513.094 302.567 513.087 296.77C513.08 289.704 513.086 282.637 513.111 275.571C513.124 271.969 513.13 268.367 513.119 264.764C513.107 260.853 513.126 256.943 513.148 253.032C513.14 251.902 513.132 250.772 513.123 249.608C513.234 239.039 516.396 230.308 523.663 222.521C531.913 214.986 541.152 211.408 552.3 211.387ZM550.913 251.521C550.32 252.222 549.727 252.923 549.116 253.646C546.034 257.622 546.518 261.42 546.523 266.256C546.52 267.172 546.517 268.087 546.514 269.031C546.505 272.118 546.503 275.204 546.502 278.291C546.497 280.497 546.492 282.703 546.487 284.908C546.474 290.915 546.467 296.921 546.463 302.927C546.46 306.678 546.456 310.429 546.451 314.179C546.439 324.563 546.429 334.947 546.425 345.332C546.425 345.997 546.425 346.661 546.425 347.346C546.425 348.013 546.424 348.679 546.424 349.366C546.424 350.717 546.423 352.067 546.423 353.418C546.423 354.088 546.422 354.758 546.422 355.448C546.418 366.297 546.401 377.146 546.377 387.995C546.354 399.134 546.342 410.273 546.34 421.411C546.339 427.665 546.333 433.919 546.315 440.173C546.299 446.057 546.297 451.941 546.305 457.826C546.306 459.985 546.302 462.145 546.292 464.304C546.279 467.253 546.285 470.202 546.296 473.151C546.287 474.005 546.279 474.858 546.271 475.738C546.326 482.427 547.618 487.1 552.038 492.333C556.074 495.696 559.558 496.77 564.769 496.778C565.781 496.785 566.793 496.791 567.835 496.798C569.492 496.793 569.492 496.793 571.182 496.788C572.95 496.795 572.95 496.795 574.754 496.802C578.022 496.813 581.291 496.814 584.559 496.812C588.085 496.811 591.612 496.822 595.138 496.832C602.046 496.848 608.953 496.854 615.861 496.855C621.476 496.856 627.091 496.86 632.707 496.867C648.629 496.884 664.551 496.893 680.474 496.892C681.761 496.892 681.761 496.892 683.075 496.892C683.934 496.892 684.794 496.891 685.679 496.891C699.605 496.891 713.532 496.91 727.458 496.938C741.76 496.967 756.061 496.98 770.363 496.979C778.392 496.978 786.42 496.984 794.448 497.005C801.284 497.023 808.12 497.028 814.956 497.014C818.442 497.008 821.929 497.007 825.415 497.025C829.198 497.04 832.98 497.031 836.763 497.015C838.41 497.031 838.41 497.031 840.09 497.047C846.393 496.99 851.473 496.325 856.663 492.521C861.232 486.897 861.826 482.11 862.215 475.073C862.258 474.328 862.3 473.582 862.343 472.814C862.826 463.441 862.819 454.067 862.824 444.684C862.829 442.652 862.834 440.62 862.839 438.588C862.852 433.124 862.859 427.66 862.863 422.196C862.866 418.777 862.87 415.359 862.875 411.94C862.888 401.228 862.898 390.516 862.902 379.805C862.906 367.464 862.924 355.124 862.953 342.783C862.975 333.217 862.985 323.65 862.986 314.084C862.987 308.38 862.993 302.676 863.011 296.971C863.027 291.619 863.029 286.266 863.021 280.914C863.02 278.951 863.024 276.987 863.034 275.024C863.047 272.345 863.041 269.666 863.031 266.987C863.039 266.21 863.047 265.434 863.055 264.634C862.998 258.338 861.368 254.445 857.226 249.771C853.377 246.391 850.762 245.271 845.64 245.269C844.622 245.264 843.603 245.259 842.554 245.253C841.436 245.258 840.319 245.262 839.168 245.267C837.98 245.264 836.792 245.261 835.568 245.258C832.268 245.251 828.969 245.253 825.67 245.26C822.112 245.264 818.555 245.257 814.997 245.252C808.027 245.243 801.057 245.245 794.087 245.25C788.422 245.255 782.758 245.256 777.093 245.253C776.288 245.253 775.482 245.253 774.652 245.252C773.015 245.252 771.379 245.251 769.742 245.25C754.388 245.245 739.035 245.251 723.681 245.262C710.504 245.271 697.326 245.269 684.149 245.26C668.853 245.25 653.556 245.245 638.259 245.251C636.628 245.252 634.998 245.253 633.367 245.253C632.564 245.254 631.762 245.254 630.935 245.254C625.277 245.256 619.619 245.253 613.961 245.248C607.067 245.243 600.172 245.244 593.277 245.255C589.759 245.26 586.24 245.262 582.721 245.256C578.909 245.249 575.097 245.257 571.285 245.267C569.612 245.26 569.612 245.26 567.906 245.253C566.374 245.261 566.374 245.261 564.812 245.269C563.932 245.27 563.052 245.27 562.145 245.27C557.049 245.785 554.137 247.641 550.913 251.521Z"/>
</mask>
<path d="M552.3 211.387C553.405 211.382 554.509 211.378 555.648 211.373C556.851 211.373 558.054 211.374 559.294 211.374C560.58 211.37 561.866 211.366 563.192 211.363C566.756 211.353 570.32 211.349 573.884 211.346C577.731 211.342 581.578 211.333 585.425 211.324C594.711 211.304 603.998 211.294 613.284 211.285C617.661 211.281 622.039 211.276 626.416 211.27C640.972 211.253 655.529 211.239 670.086 211.232C673.861 211.23 677.636 211.228 681.411 211.226C682.819 211.225 682.819 211.225 684.254 211.224C699.448 211.216 714.642 211.191 729.835 211.158C745.447 211.125 761.058 211.107 776.669 211.104C785.43 211.102 794.19 211.093 802.95 211.068C810.411 211.046 817.873 211.038 825.334 211.047C829.137 211.052 832.94 211.05 836.743 211.031C840.877 211.01 845.01 211.02 849.144 211.033C850.331 211.022 851.519 211.011 852.742 211C866.354 211.104 876.658 214.749 886.405 224.212C892.438 230.68 895.78 238.777 895.797 247.602C895.802 248.634 895.806 249.666 895.811 250.729C895.811 252.426 895.81 252.426 895.81 254.159C895.814 255.362 895.818 256.566 895.821 257.806C895.83 261.149 895.835 264.491 895.838 267.834C895.842 271.439 895.851 275.044 895.86 278.649C895.88 287.356 895.89 296.063 895.899 304.771C895.903 308.874 895.908 312.976 895.914 317.079C895.931 330.722 895.945 344.365 895.952 358.009C895.954 361.549 895.956 365.088 895.958 368.628C895.959 369.508 895.959 370.388 895.96 371.295C895.968 385.538 895.993 399.782 896.026 414.026C896.059 428.658 896.077 443.289 896.08 457.921C896.082 466.133 896.091 474.345 896.117 482.557C896.138 489.552 896.146 496.548 896.137 503.543C896.132 507.109 896.134 510.675 896.153 514.241C896.174 518.117 896.164 521.992 896.151 525.868C896.167 527.539 896.167 527.539 896.184 529.243C896.084 541.544 892.505 551.293 884.073 560.201C876.642 567.229 867.051 569.639 857.023 569.652C855.918 569.656 854.813 569.66 853.674 569.664C852.47 569.663 851.266 569.662 850.026 569.661C848.095 569.666 848.095 569.666 846.125 569.67C842.559 569.678 838.993 569.68 835.427 569.681C831.578 569.683 827.729 569.69 823.88 569.697C815.467 569.711 807.054 569.717 798.64 569.721C793.384 569.724 788.128 569.728 782.872 569.733C768.31 569.745 753.749 569.755 739.188 569.759C738.257 569.759 737.325 569.759 736.365 569.759C734.965 569.76 734.965 569.76 733.536 569.76C731.644 569.76 729.752 569.761 727.86 569.761C726.921 569.761 725.983 569.762 725.016 569.762C709.815 569.766 694.614 569.783 679.414 569.807C663.797 569.83 648.18 569.843 632.562 569.844C623.798 569.845 615.034 569.851 606.27 569.869C598.806 569.884 591.342 569.889 583.878 569.881C580.073 569.877 576.268 569.878 572.463 569.892C568.33 569.907 564.196 569.899 560.062 569.888C558.872 569.897 557.681 569.905 556.455 569.913C542.969 569.834 532.977 566.958 522.886 557.931C514.88 549.6 512.918 538.882 513.035 527.756C513.028 526.528 513.021 525.3 513.013 524.034C512.999 520.659 513.007 517.286 513.024 513.912C513.038 510.259 513.022 506.607 513.01 502.955C512.992 495.814 513 488.674 513.018 481.533C513.032 475.728 513.036 469.923 513.033 464.117C513.032 462.875 513.032 462.875 513.031 461.608C513.03 459.925 513.029 458.243 513.028 456.56C513.02 441.704 513.036 426.848 513.066 411.991C513.095 397.591 513.102 383.19 513.087 368.79C513.07 353.088 513.066 337.386 513.083 321.684C513.085 320.008 513.087 318.333 513.089 316.657C513.09 315.833 513.091 315.009 513.092 314.159C513.097 308.363 513.094 302.567 513.087 296.77C513.08 289.704 513.086 282.637 513.111 275.571C513.124 271.969 513.13 268.367 513.119 264.764C513.107 260.853 513.126 256.943 513.148 253.032C513.14 251.902 513.132 250.772 513.123 249.608C513.234 239.039 516.396 230.308 523.663 222.521C531.913 214.986 541.152 211.408 552.3 211.387ZM550.913 251.521C550.32 252.222 549.727 252.923 549.116 253.646C546.034 257.622 546.518 261.42 546.523 266.256C546.52 267.172 546.517 268.087 546.514 269.031C546.505 272.118 546.503 275.204 546.502 278.291C546.497 280.497 546.492 282.703 546.487 284.908C546.474 290.915 546.467 296.921 546.463 302.927C546.46 306.678 546.456 310.429 546.451 314.179C546.439 324.563 546.429 334.947 546.425 345.332C546.425 345.997 546.425 346.661 546.425 347.346C546.425 348.013 546.424 348.679 546.424 349.366C546.424 350.717 546.423 352.067 546.423 353.418C546.423 354.088 546.422 354.758 546.422 355.448C546.418 366.297 546.401 377.146 546.377 387.995C546.354 399.134 546.342 410.273 546.34 421.411C546.339 427.665 546.333 433.919 546.315 440.173C546.299 446.057 546.297 451.941 546.305 457.826C546.306 459.985 546.302 462.145 546.292 464.304C546.279 467.253 546.285 470.202 546.296 473.151C546.287 474.005 546.279 474.858 546.271 475.738C546.326 482.427 547.618 487.1 552.038 492.333C556.074 495.696 559.558 496.77 564.769 496.778C565.781 496.785 566.793 496.791 567.835 496.798C569.492 496.793 569.492 496.793 571.182 496.788C572.95 496.795 572.95 496.795 574.754 496.802C578.022 496.813 581.291 496.814 584.559 496.812C588.085 496.811 591.612 496.822 595.138 496.832C602.046 496.848 608.953 496.854 615.861 496.855C621.476 496.856 627.091 496.86 632.707 496.867C648.629 496.884 664.551 496.893 680.474 496.892C681.761 496.892 681.761 496.892 683.075 496.892C683.934 496.892 684.794 496.891 685.679 496.891C699.605 496.891 713.532 496.91 727.458 496.938C741.76 496.967 756.061 496.98 770.363 496.979C778.392 496.978 786.42 496.984 794.448 497.005C801.284 497.023 808.12 497.028 814.956 497.014C818.442 497.008 821.929 497.007 825.415 497.025C829.198 497.04 832.98 497.031 836.763 497.015C838.41 497.031 838.41 497.031 840.09 497.047C846.393 496.99 851.473 496.325 856.663 492.521C861.232 486.897 861.826 482.11 862.215 475.073C862.258 474.328 862.3 473.582 862.343 472.814C862.826 463.441 862.819 454.067 862.824 444.684C862.829 442.652 862.834 440.62 862.839 438.588C862.852 433.124 862.859 427.66 862.863 422.196C862.866 418.777 862.87 415.359 862.875 411.94C862.888 401.228 862.898 390.516 862.902 379.805C862.906 367.464 862.924 355.124 862.953 342.783C862.975 333.217 862.985 323.65 862.986 314.084C862.987 308.38 862.993 302.676 863.011 296.971C863.027 291.619 863.029 286.266 863.021 280.914C863.02 278.951 863.024 276.987 863.034 275.024C863.047 272.345 863.041 269.666 863.031 266.987C863.039 266.21 863.047 265.434 863.055 264.634C862.998 258.338 861.368 254.445 857.226 249.771C853.377 246.391 850.762 245.271 845.64 245.269C844.622 245.264 843.603 245.259 842.554 245.253C841.436 245.258 840.319 245.262 839.168 245.267C837.98 245.264 836.792 245.261 835.568 245.258C832.268 245.251 828.969 245.253 825.67 245.26C822.112 245.264 818.555 245.257 814.997 245.252C808.027 245.243 801.057 245.245 794.087 245.25C788.422 245.255 782.758 245.256 777.093 245.253C776.288 245.253 775.482 245.253 774.652 245.252C773.015 245.252 771.379 245.251 769.742 245.25C754.388 245.245 739.035 245.251 723.681 245.262C710.504 245.271 697.326 245.269 684.149 245.26C668.853 245.25 653.556 245.245 638.259 245.251C636.628 245.252 634.998 245.253 633.367 245.253C632.564 245.254 631.762 245.254 630.935 245.254C625.277 245.256 619.619 245.253 613.961 245.248C607.067 245.243 600.172 245.244 593.277 245.255C589.759 245.26 586.24 245.262 582.721 245.256C578.909 245.249 575.097 245.257 571.285 245.267C569.612 245.26 569.612 245.26 567.906 245.253C566.374 245.261 566.374 245.261 564.812 245.269C563.932 245.27 563.052 245.27 562.145 245.27C557.049 245.785 554.137 247.641 550.913 251.521Z" fill="#FCFBFD"/>
<path d="M552.3 211.387C553.405 211.382 554.509 211.378 555.648 211.373C556.851 211.373 558.054 211.374 559.294 211.374C560.58 211.37 561.866 211.366 563.192 211.363C566.756 211.353 570.32 211.349 573.884 211.346C577.731 211.342 581.578 211.333 585.425 211.324C594.711 211.304 603.998 211.294 613.284 211.285C617.661 211.281 622.039 211.276 626.416 211.27C640.972 211.253 655.529 211.239 670.086 211.232C673.861 211.23 677.636 211.228 681.411 211.226C682.819 211.225 682.819 211.225 684.254 211.224C699.448 211.216 714.642 211.191 729.835 211.158C745.447 211.125 761.058 211.107 776.669 211.104C785.43 211.102 794.19 211.093 802.95 211.068C810.411 211.046 817.873 211.038 825.334 211.047C829.137 211.052 832.94 211.05 836.743 211.031C840.877 211.01 845.01 211.02 849.144 211.033C850.331 211.022 851.519 211.011 852.742 211C866.354 211.104 876.658 214.749 886.405 224.212C892.438 230.68 895.78 238.777 895.797 247.602C895.802 248.634 895.806 249.666 895.811 250.729C895.811 252.426 895.81 252.426 895.81 254.159C895.814 255.362 895.818 256.566 895.821 257.806C895.83 261.149 895.835 264.491 895.838 267.834C895.842 271.439 895.851 275.044 895.86 278.649C895.88 287.356 895.89 296.063 895.899 304.771C895.903 308.874 895.908 312.976 895.914 317.079C895.931 330.722 895.945 344.365 895.952 358.009C895.954 361.549 895.956 365.088 895.958 368.628C895.959 369.508 895.959 370.388 895.96 371.295C895.968 385.538 895.993 399.782 896.026 414.026C896.059 428.658 896.077 443.289 896.08 457.921C896.082 466.133 896.091 474.345 896.117 482.557C896.138 489.552 896.146 496.548 896.137 503.543C896.132 507.109 896.134 510.675 896.153 514.241C896.174 518.117 896.164 521.992 896.151 525.868C896.167 527.539 896.167 527.539 896.184 529.243C896.084 541.544 892.505 551.293 884.073 560.201C876.642 567.229 867.051 569.639 857.023 569.652C855.918 569.656 854.813 569.66 853.674 569.664C852.47 569.663 851.266 569.662 850.026 569.661C848.095 569.666 848.095 569.666 846.125 569.67C842.559 569.678 838.993 569.68 835.427 569.681C831.578 569.683 827.729 569.69 823.88 569.697C815.467 569.711 807.054 569.717 798.64 569.721C793.384 569.724 788.128 569.728 782.872 569.733C768.31 569.745 753.749 569.755 739.188 569.759C738.257 569.759 737.325 569.759 736.365 569.759C734.965 569.76 734.965 569.76 733.536 569.76C731.644 569.76 729.752 569.761 727.86 569.761C726.921 569.761 725.983 569.762 725.016 569.762C709.815 569.766 694.614 569.783 679.414 569.807C663.797 569.83 648.18 569.843 632.562 569.844C623.798 569.845 615.034 569.851 606.27 569.869C598.806 569.884 591.342 569.889 583.878 569.881C580.073 569.877 576.268 569.878 572.463 569.892C568.33 569.907 564.196 569.899 560.062 569.888C558.872 569.897 557.681 569.905 556.455 569.913C542.969 569.834 532.977 566.958 522.886 557.931C514.88 549.6 512.918 538.882 513.035 527.756C513.028 526.528 513.021 525.3 513.013 524.034C512.999 520.659 513.007 517.286 513.024 513.912C513.038 510.259 513.022 506.607 513.01 502.955C512.992 495.814 513 488.674 513.018 481.533C513.032 475.728 513.036 469.923 513.033 464.117C513.032 462.875 513.032 462.875 513.031 461.608C513.03 459.925 513.029 458.243 513.028 456.56C513.02 441.704 513.036 426.848 513.066 411.991C513.095 397.591 513.102 383.19 513.087 368.79C513.07 353.088 513.066 337.386 513.083 321.684C513.085 320.008 513.087 318.333 513.089 316.657C513.09 315.833 513.091 315.009 513.092 314.159C513.097 308.363 513.094 302.567 513.087 296.77C513.08 289.704 513.086 282.637 513.111 275.571C513.124 271.969 513.13 268.367 513.119 264.764C513.107 260.853 513.126 256.943 513.148 253.032C513.14 251.902 513.132 250.772 513.123 249.608C513.234 239.039 516.396 230.308 523.663 222.521C531.913 214.986 541.152 211.408 552.3 211.387ZM550.913 251.521C550.32 252.222 549.727 252.923 549.116 253.646C546.034 257.622 546.518 261.42 546.523 266.256C546.52 267.172 546.517 268.087 546.514 269.031C546.505 272.118 546.503 275.204 546.502 278.291C546.497 280.497 546.492 282.703 546.487 284.908C546.474 290.915 546.467 296.921 546.463 302.927C546.46 306.678 546.456 310.429 546.451 314.179C546.439 324.563 546.429 334.947 546.425 345.332C546.425 345.997 546.425 346.661 546.425 347.346C546.425 348.013 546.424 348.679 546.424 349.366C546.424 350.717 546.423 352.067 546.423 353.418C546.423 354.088 546.422 354.758 546.422 355.448C546.418 366.297 546.401 377.146 546.377 387.995C546.354 399.134 546.342 410.273 546.34 421.411C546.339 427.665 546.333 433.919 546.315 440.173C546.299 446.057 546.297 451.941 546.305 457.826C546.306 459.985 546.302 462.145 546.292 464.304C546.279 467.253 546.285 470.202 546.296 473.151C546.287 474.005 546.279 474.858 546.271 475.738C546.326 482.427 547.618 487.1 552.038 492.333C556.074 495.696 559.558 496.77 564.769 496.778C565.781 496.785 566.793 496.791 567.835 496.798C569.492 496.793 569.492 496.793 571.182 496.788C572.95 496.795 572.95 496.795 574.754 496.802C578.022 496.813 581.291 496.814 584.559 496.812C588.085 496.811 591.612 496.822 595.138 496.832C602.046 496.848 608.953 496.854 615.861 496.855C621.476 496.856 627.091 496.86 632.707 496.867C648.629 496.884 664.551 496.893 680.474 496.892C681.761 496.892 681.761 496.892 683.075 496.892C683.934 496.892 684.794 496.891 685.679 496.891C699.605 496.891 713.532 496.91 727.458 496.938C741.76 496.967 756.061 496.98 770.363 496.979C778.392 496.978 786.42 496.984 794.448 497.005C801.284 497.023 808.12 497.028 814.956 497.014C818.442 497.008 821.929 497.007 825.415 497.025C829.198 497.04 832.98 497.031 836.763 497.015C838.41 497.031 838.41 497.031 840.09 497.047C846.393 496.99 851.473 496.325 856.663 492.521C861.232 486.897 861.826 482.11 862.215 475.073C862.258 474.328 862.3 473.582 862.343 472.814C862.826 463.441 862.819 454.067 862.824 444.684C862.829 442.652 862.834 440.62 862.839 438.588C862.852 433.124 862.859 427.66 862.863 422.196C862.866 418.777 862.87 415.359 862.875 411.94C862.888 401.228 862.898 390.516 862.902 379.805C862.906 367.464 862.924 355.124 862.953 342.783C862.975 333.217 862.985 323.65 862.986 314.084C862.987 308.38 862.993 302.676 863.011 296.971C863.027 291.619 863.029 286.266 863.021 280.914C863.02 278.951 863.024 276.987 863.034 275.024C863.047 272.345 863.041 269.666 863.031 266.987C863.039 266.21 863.047 265.434 863.055 264.634C862.998 258.338 861.368 254.445 857.226 249.771C853.377 246.391 850.762 245.271 845.64 245.269C844.622 245.264 843.603 245.259 842.554 245.253C841.436 245.258 840.319 245.262 839.168 245.267C837.98 245.264 836.792 245.261 835.568 245.258C832.268 245.251 828.969 245.253 825.67 245.26C822.112 245.264 818.555 245.257 814.997 245.252C808.027 245.243 801.057 245.245 794.087 245.25C788.422 245.255 782.758 245.256 777.093 245.253C776.288 245.253 775.482 245.253 774.652 245.252C773.015 245.252 771.379 245.251 769.742 245.25C754.388 245.245 739.035 245.251 723.681 245.262C710.504 245.271 697.326 245.269 684.149 245.26C668.853 245.25 653.556 245.245 638.259 245.251C636.628 245.252 634.998 245.253 633.367 245.253C632.564 245.254 631.762 245.254 630.935 245.254C625.277 245.256 619.619 245.253 613.961 245.248C607.067 245.243 600.172 245.244 593.277 245.255C589.759 245.26 586.24 245.262 582.721 245.256C578.909 245.249 575.097 245.257 571.285 245.267C569.612 245.26 569.612 245.26 567.906 245.253C566.374 245.261 566.374 245.261 564.812 245.269C563.932 245.27 563.052 245.27 562.145 245.27C557.049 245.785 554.137 247.641 550.913 251.521Z" stroke="#B5BAFA" stroke-width="2" mask="url(#path-42-inside-1_187_412)"/>
</g>
<path d="M586.751 387.306C573.887 400.249 560.904 412.992 547.129 424.966L546.028 425.953C546.027 429.842 546.026 433.73 546.022 437.618C546.015 443.633 546.009 449.648 546.009 455.662C546.01 457.875 546.01 460.088 546.01 462.301L546.01 462.364C546.004 465.434 545.999 468.504 546 471.574L546.003 474.363C545.977 482.114 546.116 487.236 551.149 493.443C556.364 497.273 561.47 497.943 567.804 498L571.148 497.969L844.494 497.73C850.685 497.72 855.27 495.842 859.675 491.429C863.033 485.279 863.033 485.279 862.992 471.485L812.212 418.458L809.992 416.218C804.374 410.428 799.308 404.554 790.984 403.319L787.694 403.378C781.472 403.386 778.25 405.012 773.682 409.213L770.963 411.989C769.437 413.534 767.913 415.08 766.394 416.632C764.844 418.218 763.292 419.802 761.737 421.385C760.73 422.407 759.722 423.429 758.715 424.451C754.694 428.56 750.513 432.353 746.113 436.043L713.826 403.69L709.934 399.791C707.495 397.345 705.054 394.9 702.605 392.463C700.958 390.826 699.312 389.187 697.666 387.548L694.985 384.875L694.752 384.643C690.007 379.934 685.283 375.247 680.916 370.179C679.167 368.136 677.461 366.262 675.506 364.408C671.718 361.255 668.113 358.051 664.71 354.476C662.472 351.871 660.227 349.282 657.919 346.738C652.975 341.62 649.125 340.161 641.91 340C635.226 340.079 632.218 341.492 627.473 346.234L625.918 347.819C624.163 349.581 622.41 351.345 620.663 353.115C619.403 354.392 618.141 355.666 616.878 356.938C613.531 360.303 610.187 363.67 606.849 367.043C600.805 373.148 594.757 379.249 588.702 385.343L586.751 387.306Z" fill="url(#paint20_linear_187_412)"/>
<path d="M758.715 424.451C754.694 428.56 750.513 432.353 746.113 436.043L685 497.73H844.494C850.685 497.72 855.27 495.842 859.675 491.428C863.033 485.279 863.033 485.279 862.992 471.485L812.212 418.458L809.992 416.218C804.374 410.428 799.308 404.554 790.984 403.319L787.694 403.378C781.472 403.386 778.25 405.012 773.682 409.213L770.963 411.989C769.437 413.534 767.913 415.079 766.394 416.631C764.844 418.218 763.292 419.802 761.737 421.384C760.73 422.406 759.722 423.429 758.715 424.451Z" fill="url(#paint21_linear_187_412)"/>
<circle cx="774" cy="334" r="31.5" fill="url(#paint22_linear_187_412)"/>
<path d="M594.801 728.221V675.18H642.401V729.001L618.143 709.096L594.801 728.221Z" fill="url(#paint23_linear_187_412)"/>
<path d="M560.105 728.598C555.443 728.598 551.291 727.799 547.651 726.203C544.011 724.606 541.137 722.434 539.029 719.688C536.921 716.878 535.74 713.749 535.484 710.3H551.675C551.866 712.152 552.728 713.653 554.261 714.802C555.794 715.952 557.678 716.527 559.913 716.527C561.957 716.527 563.522 716.144 564.608 715.377C565.757 714.547 566.332 713.493 566.332 712.216C566.332 710.683 565.534 709.565 563.937 708.863C562.34 708.096 559.754 707.266 556.177 706.372C552.345 705.478 549.152 704.552 546.597 703.594C544.043 702.572 541.839 701.007 539.987 698.9C538.135 696.728 537.209 693.822 537.209 690.182C537.209 687.116 538.039 684.338 539.7 681.847C541.424 679.292 543.915 677.281 547.172 675.812C550.493 674.343 554.421 673.608 558.955 673.608C565.661 673.608 570.93 675.269 574.763 678.59C578.658 681.911 580.894 686.318 581.469 691.81H566.332C566.077 689.958 565.246 688.489 563.841 687.403C562.5 686.318 560.712 685.775 558.476 685.775C556.56 685.775 555.092 686.158 554.07 686.924C553.048 687.627 552.537 688.617 552.537 689.894C552.537 691.427 553.335 692.577 554.932 693.343C556.592 694.109 559.147 694.876 562.596 695.642C566.556 696.664 569.781 697.686 572.272 698.708C574.763 699.666 576.934 701.263 578.786 703.498C580.702 705.669 581.692 708.607 581.756 712.312C581.756 715.441 580.862 718.251 579.074 720.742C577.349 723.169 574.826 725.085 571.505 726.49C568.248 727.895 564.448 728.598 560.105 728.598Z" fill="url(#paint24_linear_187_412)"/>
<path d="M664.57 663.012C661.696 663.012 659.333 662.182 657.481 660.521C655.693 658.797 654.798 656.689 654.798 654.198C654.798 651.644 655.693 649.536 657.481 647.876C659.333 646.151 661.696 645.289 664.57 645.289C667.38 645.289 669.679 646.151 671.468 647.876C673.32 649.536 674.246 651.644 674.246 654.198C674.246 656.689 673.32 658.797 671.468 660.521C669.679 662.182 667.38 663.012 664.57 663.012ZM672.713 674.375V727.831H656.331V674.375H672.713Z" fill="url(#paint25_linear_187_412)"/>
<path d="M700.967 681.943C702.563 679.452 704.767 677.44 707.577 675.907C710.387 674.375 713.676 673.608 717.444 673.608C721.851 673.608 725.843 674.726 729.419 676.961C732.996 679.197 735.806 682.39 737.85 686.541C739.957 690.693 741.011 695.515 741.011 701.007C741.011 706.5 739.957 711.354 737.85 715.569C735.806 719.72 732.996 722.945 729.419 725.245C725.843 727.48 721.851 728.598 717.444 728.598C713.74 728.598 710.451 727.831 707.577 726.298C704.767 724.766 702.563 722.786 700.967 720.359V753.314H684.585V674.375H700.967V681.943ZM724.342 701.007C724.342 696.92 723.192 693.726 720.893 691.427C718.658 689.064 715.88 687.882 712.559 687.882C709.301 687.882 706.523 689.064 704.224 691.427C701.989 693.79 700.871 697.015 700.871 701.103C700.871 705.19 701.989 708.416 704.224 710.779C706.523 713.142 709.301 714.323 712.559 714.323C715.816 714.323 718.594 713.142 720.893 710.779C723.192 708.352 724.342 705.095 724.342 701.007Z" fill="url(#paint26_linear_187_412)"/>
<path d="M765.987 681.943C767.584 679.452 769.787 677.44 772.598 675.907C775.408 674.375 778.697 673.608 782.465 673.608C786.872 673.608 790.864 674.726 794.44 676.961C798.017 679.197 800.827 682.39 802.871 686.541C804.978 690.693 806.032 695.515 806.032 701.007C806.032 706.5 804.978 711.354 802.871 715.569C800.827 719.72 798.017 722.945 794.44 725.245C790.864 727.48 786.872 728.598 782.465 728.598C778.761 728.598 775.472 727.831 772.598 726.298C769.787 724.766 767.584 722.786 765.987 720.359V753.314H749.606V674.375H765.987V681.943ZM789.363 701.007C789.363 696.92 788.213 693.726 785.914 691.427C783.679 689.064 780.9 687.882 777.579 687.882C774.322 687.882 771.544 689.064 769.245 691.427C767.009 693.79 765.892 697.015 765.892 701.103C765.892 705.19 767.009 708.416 769.245 710.779C771.544 713.142 774.322 714.323 777.579 714.323C780.836 714.323 783.615 713.142 785.914 710.779C788.213 708.352 789.363 705.095 789.363 701.007Z" fill="url(#paint27_linear_187_412)"/>
<path d="M831.008 674.375V727.831H814.626V674.375H831.008Z" fill="url(#paint28_linear_187_412)"/>
<path d="M872.674 713.94V727.831H864.339C858.4 727.831 853.769 726.394 850.448 723.52C847.127 720.582 845.466 715.824 845.466 709.246V687.978H838.952V674.375H845.466V661.346H861.848V674.375H872.578V687.978H861.848V709.438C861.848 711.034 862.232 712.184 862.998 712.886C863.764 713.589 865.042 713.94 866.83 713.94H872.674Z" fill="url(#paint29_linear_187_412)"/>
<path d="M819.639 644.056C827.019 642.623 832.896 644.756 836.614 652.653C837.535 656.691 837.351 659.1 836.614 661.248C835.876 663.397 832.617 667.829 827.757 670.56L832.923 675.575H819.101L810.045 664.114C808.172 661.174 807.831 657.666 808.569 654.801C809.306 651.936 812.259 645.489 819.639 644.056ZM822.963 649.448C818.153 649.448 814.254 653.022 814.254 657.431C814.254 661.84 818.153 665.414 822.963 665.414C827.773 665.414 831.672 661.84 831.672 657.431C831.672 653.022 827.773 649.448 822.963 649.448Z" fill="url(#paint30_linear_187_412)"/>
<line x1="650.8" y1="659" x2="650.8" y2="667.4" stroke="url(#paint31_linear_187_412)" stroke-width="2.8"/>
<line x1="649.401" y1="666" x2="657.801" y2="666" stroke="url(#paint32_linear_187_412)" stroke-width="2.8"/>
<line y1="-1.4" x2="8.40907" y2="-1.4" transform="matrix(0 -1 -1 0 649.992 650.6)" stroke="url(#paint33_linear_187_412)" stroke-width="2.8"/>
<line y1="-1.4" x2="8.4" y2="-1.4" transform="matrix(1 0 0 -1 649.992 642.191)" stroke="url(#paint34_linear_187_412)" stroke-width="2.8"/>
<line x1="677.401" y1="650.6" x2="677.401" y2="642.2" stroke="url(#paint35_linear_187_412)" stroke-width="2.8"/>
<line x1="678.801" y1="643.599" x2="670.401" y2="643.599" stroke="url(#paint36_linear_187_412)" stroke-width="2.8"/>
<line y1="-1.4" x2="8.4" y2="-1.4" transform="matrix(0 1 1 0 678.801 659)" stroke="url(#paint37_linear_187_412)" stroke-width="2.8"/>
<line y1="-1.4" x2="8.4" y2="-1.4" transform="matrix(-1 0 0 1 678.801 667.4)" stroke="url(#paint38_linear_187_412)" stroke-width="2.8"/>
<path d="M276.595 326.566C277.642 326.513 278.689 326.459 279.768 326.404C282.921 327.015 284.288 327.993 286.178 330.597C287.653 333.565 287.645 336.503 287.65 339.766C287.684 344.521 287.684 344.521 288.289 349.22C288.849 352.099 289.037 354.919 289.221 357.847C289.278 358.745 289.278 358.745 289.337 359.661C289.774 366.648 290.152 373.639 290.51 380.631C290.56 381.539 290.609 382.448 290.661 383.384C290.766 385.474 290.841 387.56 290.895 389.651C290.948 391.264 290.948 391.264 291.002 392.91C290.352 396.452 288.845 397.737 286.11 399.991C283.498 401.297 280.75 401.256 277.877 401.472C277.211 401.525 276.545 401.578 275.859 401.632C273.648 401.805 271.437 401.971 269.225 402.136C268.466 402.193 267.707 402.251 266.924 402.31C249.869 403.595 232.801 404.606 215.71 405.271C214.625 405.313 213.539 405.356 212.421 405.399C209.685 405.493 206.952 405.557 204.215 405.601C203.468 405.624 202.72 405.647 201.95 405.67C197.343 405.684 194.676 404.879 191.07 401.751C189.592 399.299 189.058 397.319 188.868 394.478C188.815 393.741 188.763 393.004 188.708 392.245C188.66 391.45 188.611 390.655 188.561 389.836C188.504 389.004 188.448 388.171 188.39 387.313C188.21 384.61 188.044 381.906 187.88 379.201C187.824 378.287 187.767 377.372 187.709 376.43C187.046 365.648 186.393 354.859 186.23 344.056C186.203 343.16 186.177 342.263 186.149 341.34C186.147 337.638 186.363 335.422 188.183 332.152C191.254 330.364 192.73 330.174 196.21 329.953C197.233 329.888 198.257 329.823 199.311 329.755C204.434 329.492 209.555 329.303 214.682 329.151C215.805 329.115 216.927 329.079 218.084 329.043C221.637 328.93 225.191 328.82 228.745 328.711C244.713 328.22 260.641 327.15 276.595 326.566Z" fill="url(#paint39_linear_187_412)"/>
<path d="M224.51 347.191C227.468 347.662 229.864 348.92 232.492 350.312C233.354 350.766 234.216 351.22 235.105 351.687C236.449 352.402 236.449 352.402 237.82 353.131C239.582 354.062 241.344 354.993 243.107 355.922C244.392 356.6 244.392 356.6 245.703 357.292C249.467 359.255 253.264 361.151 257.07 363.031C256.987 364.527 256.987 364.527 256.19 366.551C254.314 368.102 252.505 369.44 250.484 370.776C249.622 371.357 249.622 371.357 248.744 371.951C247.528 372.767 246.309 373.578 245.086 374.384C243.218 375.621 241.368 376.881 239.518 378.144C238.335 378.934 237.15 379.723 235.964 380.511C235.412 380.889 234.86 381.268 234.291 381.658C231.747 383.309 230.28 384.191 227.204 383.938C226.606 383.718 226.007 383.498 225.39 383.271C223.056 355.75 223.056 355.75 223.63 348.071C223.921 347.781 224.211 347.49 224.51 347.191Z" fill="#FBFBFD"/>
<path d="M327.345 555.594C332.515 559.57 337.671 565.015 338.6 571.645C338.811 573.851 338.955 576.062 339.09 578.274C333.878 579.477 333.878 579.477 328.56 580.704C328.293 581.773 328.026 582.842 327.75 583.944C328.618 583.876 329.485 583.808 330.379 583.738C331.511 583.655 332.643 583.571 333.774 583.488C334.634 583.42 334.634 583.42 335.51 583.351C336.971 583.246 338.436 583.186 339.9 583.134C340.71 583.944 340.71 583.944 340.71 587.994C337.235 588.796 333.76 589.598 330.18 590.424C329.913 591.493 329.646 592.562 329.37 593.664C330.619 593.548 331.868 593.429 333.116 593.309C333.812 593.244 334.507 593.178 335.224 593.11C337.61 592.838 339.964 592.457 342.33 592.044C346.389 608.812 346.389 608.812 343.089 615.281C339.06 621.694 334.713 625.327 327.446 627.431C320.741 628.229 314.714 627.917 308.956 624.058C302.037 618.446 300.308 612.043 299.4 603.384C299.378 602.034 299.371 600.683 299.4 599.334C300.337 599.172 300.337 599.172 301.292 599.008C302.105 598.865 302.917 598.722 303.754 598.574C304.562 598.433 305.37 598.293 306.203 598.147C308.285 597.813 308.285 597.813 309.93 596.904C309.93 596.102 309.93 595.3 309.93 594.474C305.921 594.741 301.911 595.008 297.78 595.284C297.513 593.947 297.246 592.611 296.97 591.234C299.562 589.765 301.938 589.191 304.868 588.703C306.064 588.499 306.064 588.499 307.285 588.291C307.891 588.193 308.496 588.095 309.12 587.994C308.853 587.192 308.586 586.39 308.31 585.564C307.028 585.542 305.745 585.526 304.463 585.513C303.748 585.504 303.034 585.494 302.298 585.485C300.387 585.557 298.797 585.832 296.97 586.374C294.589 580.26 294.314 572.874 295.85 566.469C298.142 561.307 302.886 557.198 307.956 554.834C313.844 552.981 321.874 552.431 327.345 555.594Z" fill="url(#paint40_linear_187_412)"/>
<path d="M355.554 586.593C354.512 585.6 354.348 585.549 352.249 585.29C352.084 585.27 351.915 585.27 351.751 585.292C349.9 585.529 349.613 585.603 348.549 586.639C348.193 586.986 347.986 587.46 347.964 587.957C347.924 588.847 347.914 589.261 347.935 589.879C347.963 590.696 348.52 591.407 349.296 591.665C349.999 591.9 350.504 592.502 350.625 593.233C352.086 602.097 353.668 610.391 349.174 618.653L347.747 620.9L346.339 623.159C341.711 629.299 334.103 632.739 326.637 633.929C316.823 635.01 309.093 633.572 301.172 627.329C295.412 621.748 291.998 614.549 291.402 606.573C291.357 604.035 291.238 601.699 290.808 599.272C290.646 598.355 289.834 597.651 288.905 597.597C288.458 597.571 287.953 597.583 287.25 597.714C285.707 598 285 599 284.82 600.144C284.641 601.287 285.542 609.651 286.853 614.538L287.301 616.192C289.393 622.787 291.453 625.998 296.492 631.351C303.225 637.778 311.358 640.76 320.612 640.795L322.432 640.724C323.567 640.68 324.51 641.588 324.51 642.723V648.122C324.51 648.978 323.965 649.743 323.153 650.013C320.933 650.752 320.457 650.794 317.271 651.072C314.377 651.401 314.22 651.419 311.961 651.897C311.691 651.954 311.433 652.067 311.209 652.228C310.209 652.946 309.969 653.15 309.517 653.811C309.255 654.196 309.149 654.667 309.204 655.13C309.314 656.047 309.379 656.476 309.526 657.053C309.742 657.899 310.524 658.475 311.397 658.478C315.061 658.49 318.663 658.325 322.329 657.97L324.409 657.755C329.318 657.254 334.171 656.718 338.992 655.635C340.261 655.331 341.534 655.042 342.808 654.762C344.139 654.47 345.469 654.173 346.799 653.874C347.536 653.709 348.116 653.141 348.299 652.409L348.539 651.448C348.708 650.774 348.515 650.061 348.03 649.564L347.794 649.324C347.671 649.197 347.531 649.086 347.376 649C345.066 647.709 343.359 647.801 340.679 648.008L338.888 648.187C337.702 648.284 336.517 648.382 335.331 648.481L334.802 648.532C333.627 648.645 332.688 647.712 332.486 646.549C332.434 646.251 332.36 645.887 332.256 645.371L331.8 643.377L331.345 641.371L331.308 641.211C331.145 640.506 331.683 639.834 332.406 639.834C332.542 639.834 332.676 639.809 332.804 639.76C341.12 636.582 347.366 632.357 353.063 625.507C359.418 616.454 360.207 607.752 358.581 597.203L358.277 595.334C357.805 592.375 357.346 589.689 355.906 587.048C355.814 586.879 355.694 586.726 355.554 586.593Z" fill="url(#paint41_linear_187_412)"/>
<g filter="url(#filter14_d_187_412)">
<path d="M1022.18 237.51L1035.91 170.26C1037.07 164.543 1042.57 160.787 1048.32 161.776L1100.41 170.742C1106.34 171.764 1110.3 177.445 1109.19 183.367L1096.39 251.913C1095.3 257.804 1089.61 261.673 1083.73 260.534L1030.71 250.273C1024.81 249.132 1020.98 243.396 1022.18 237.51Z" fill="#9694F8"/>
<path d="M1047.09 226.304L1053.9 189.834C1054.03 189.182 1054.65 188.753 1055.3 188.875L1083.95 194.228C1084.6 194.35 1085.03 194.977 1084.91 195.628L1078.11 232.007C1077.91 233.07 1076.52 233.349 1075.93 232.445L1066.02 217.351C1065.65 216.79 1064.9 216.64 1064.34 217.018L1048.94 227.516C1048.06 228.118 1046.89 227.354 1047.09 226.304Z" fill="white"/>
</g>
</g>
<defs>
<filter id="filter0_d_187_412" x="-80" y="-80" width="466" height="416.5" filterUnits="userSpaceOnUse" color-interpolation-filters="sRGB">
<feFlood flood-opacity="0" result="BackgroundImageFix"/>
<feColorMatrix in="SourceAlpha" type="matrix" values="0 0 0 0 0 0 0 0 0 0 0 0 0 0 0 0 0 0 127 0" result="hardAlpha"/>
<feOffset/>
<feGaussianBlur stdDeviation="40"/>
<feComposite in2="hardAlpha" operator="out"/>
<feColorMatrix type="matrix" values="0 0 0 0 0.827451 0 0 0 0 0.878431 0 0 0 0 0.992157 0 0 0 0.5 0"/>
<feBlend mode="normal" in2="BackgroundImageFix" result="effect1_dropShadow_187_412"/>
<feBlend mode="normal" in="SourceGraphic" in2="effect1_dropShadow_187_412" result="shape"/>
</filter>
<filter id="filter1_d_187_412" x="351" y="154" width="72.1499" height="72.7002" filterUnits="userSpaceOnUse" color-interpolation-filters="sRGB">
<feFlood flood-opacity="0" result="BackgroundImageFix"/>
<feColorMatrix in="SourceAlpha" type="matrix" values="0 0 0 0 0 0 0 0 0 0 0 0 0 0 0 0 0 0 127 0" result="hardAlpha"/>
<feOffset/>
<feGaussianBlur stdDeviation="2.5"/>
<feComposite in2="hardAlpha" operator="out"/>
<feColorMatrix type="matrix" values="0 0 0 0 0.737255 0 0 0 0 0.74902 0 0 0 0 0.992157 0 0 0 0.4 0"/>
<feBlend mode="normal" in2="BackgroundImageFix" result="effect1_dropShadow_187_412"/>
<feBlend mode="normal" in="SourceGraphic" in2="effect1_dropShadow_187_412" result="shape"/>
</filter>
<filter id="filter2_d_187_412" x="1026.21" y="405.27" width="57.72" height="58.1602" filterUnits="userSpaceOnUse" color-interpolation-filters="sRGB">
<feFlood flood-opacity="0" result="BackgroundImageFix"/>
<feColorMatrix in="SourceAlpha" type="matrix" values="0 0 0 0 0 0 0 0 0 0 0 0 0 0 0 0 0 0 127 0" result="hardAlpha"/>
<feOffset/>
<feGaussianBlur stdDeviation="2"/>
<feComposite in2="hardAlpha" operator="out"/>
<feColorMatrix type="matrix" values="0 0 0 0 0.737255 0 0 0 0 0.74902 0 0 0 0 0.992157 0 0 0 0.4 0"/>
<feBlend mode="normal" in2="BackgroundImageFix" result="effect1_dropShadow_187_412"/>
<feBlend mode="normal" in="SourceGraphic" in2="effect1_dropShadow_187_412" result="shape"/>
</filter>
<filter id="filter3_d_187_412" x="945" y="236" width="57.72" height="58.1602" filterUnits="userSpaceOnUse" color-interpolation-filters="sRGB">
<feFlood flood-opacity="0" result="BackgroundImageFix"/>
<feColorMatrix in="SourceAlpha" type="matrix" values="0 0 0 0 0 0 0 0 0 0 0 0 0 0 0 0 0 0 127 0" result="hardAlpha"/>
<feOffset/>
<feGaussianBlur stdDeviation="2"/>
<feComposite in2="hardAlpha" operator="out"/>
<feColorMatrix type="matrix" values="0 0 0 0 0.737255 0 0 0 0 0.74902 0 0 0 0 0.992157 0 0 0 0.4 0"/>
<feBlend mode="normal" in2="BackgroundImageFix" result="effect1_dropShadow_187_412"/>
<feBlend mode="normal" in="SourceGraphic" in2="effect1_dropShadow_187_412" result="shape"/>
</filter>
<filter id="filter4_d_187_412" x="914.228" y="616.184" width="69.2641" height="69.7924" filterUnits="userSpaceOnUse" color-interpolation-filters="sRGB">
<feFlood flood-opacity="0" result="BackgroundImageFix"/>
<feColorMatrix in="SourceAlpha" type="matrix" values="0 0 0 0 0 0 0 0 0 0 0 0 0 0 0 0 0 0 127 0" result="hardAlpha"/>
<feOffset/>
<feGaussianBlur stdDeviation="2.4"/>
<feComposite in2="hardAlpha" operator="out"/>
<feColorMatrix type="matrix" values="0 0 0 0 0.737255 0 0 0 0 0.74902 0 0 0 0 0.992157 0 0 0 0.4 0"/>
<feBlend mode="normal" in2="BackgroundImageFix" result="effect1_dropShadow_187_412"/>
<feBlend mode="normal" in="SourceGraphic" in2="effect1_dropShadow_187_412" result="shape"/>
</filter>
<filter id="filter5_d_187_412" x="1280.2" y="243.2" width="69.264" height="69.7919" filterUnits="userSpaceOnUse" color-interpolation-filters="sRGB">
<feFlood flood-opacity="0" result="BackgroundImageFix"/>
<feColorMatrix in="SourceAlpha" type="matrix" values="0 0 0 0 0 0 0 0 0 0 0 0 0 0 0 0 0 0 127 0" result="hardAlpha"/>
<feOffset/>
<feGaussianBlur stdDeviation="2.4"/>
<feComposite in2="hardAlpha" operator="out"/>
<feColorMatrix type="matrix" values="0 0 0 0 0.737255 0 0 0 0 0.74902 0 0 0 0 0.992157 0 0 0 0.4 0"/>
<feBlend mode="normal" in2="BackgroundImageFix" result="effect1_dropShadow_187_412"/>
<feBlend mode="normal" in="SourceGraphic" in2="effect1_dropShadow_187_412" result="shape"/>
</filter>
<filter id="filter6_d_187_412" x="305" y="231" width="71" height="71" filterUnits="userSpaceOnUse" color-interpolation-filters="sRGB">
<feFlood flood-opacity="0" result="BackgroundImageFix"/>
<feColorMatrix in="SourceAlpha" type="matrix" values="0 0 0 0 0 0 0 0 0 0 0 0 0 0 0 0 0 0 127 0" result="hardAlpha"/>
<feMorphology radius="4" operator="dilate" in="SourceAlpha" result="effect1_dropShadow_187_412"/>
<feOffset/>
<feGaussianBlur stdDeviation="10"/>
<feComposite in2="hardAlpha" operator="out"/>
<feColorMatrix type="matrix" values="0 0 0 0 0.694118 0 0 0 0 0.721569 0 0 0 0 0.976471 0 0 0 0.3 0"/>
<feBlend mode="normal" in2="BackgroundImageFix" result="effect1_dropShadow_187_412"/>
<feBlend mode="normal" in="SourceGraphic" in2="effect1_dropShadow_187_412" result="shape"/>
</filter>
<filter id="filter7_d_187_412" x="1151.2" y="309.2" width="85.2" height="85.2001" filterUnits="userSpaceOnUse" color-interpolation-filters="sRGB">
<feFlood flood-opacity="0" result="BackgroundImageFix"/>
<feColorMatrix in="SourceAlpha" type="matrix" values="0 0 0 0 0 0 0 0 0 0 0 0 0 0 0 0 0 0 127 0" result="hardAlpha"/>
<feMorphology radius="4.8" operator="dilate" in="SourceAlpha" result="effect1_dropShadow_187_412"/>
<feOffset/>
<feGaussianBlur stdDeviation="12"/>
<feComposite in2="hardAlpha" operator="out"/>
<feColorMatrix type="matrix" values="0 0 0 0 0.694118 0 0 0 0 0.721569 0 0 0 0 0.976471 0 0 0 0.3 0"/>
<feBlend mode="normal" in2="BackgroundImageFix" result="effect1_dropShadow_187_412"/>
<feBlend mode="normal" in="SourceGraphic" in2="effect1_dropShadow_187_412" result="shape"/>
</filter>
<filter id="filter8_d_187_412" x="213" y="185" width="74" height="74" filterUnits="userSpaceOnUse" color-interpolation-filters="sRGB">
<feFlood flood-opacity="0" result="BackgroundImageFix"/>
<feColorMatrix in="SourceAlpha" type="matrix" values="0 0 0 0 0 0 0 0 0 0 0 0 0 0 0 0 0 0 127 0" result="hardAlpha"/>
<feMorphology radius="2" operator="dilate" in="SourceAlpha" result="effect1_dropShadow_187_412"/>
<feOffset/>
<feGaussianBlur stdDeviation="12"/>
<feComposite in2="hardAlpha" operator="out"/>
<feColorMatrix type="matrix" values="0 0 0 0 0.819608 0 0 0 0 0.839216 0 0 0 0 1 0 0 0 0.8 0"/>
<feBlend mode="normal" in2="BackgroundImageFix" result="effect1_dropShadow_187_412"/>
<feBlend mode="normal" in="SourceGraphic" in2="effect1_dropShadow_187_412" result="shape"/>
</filter>
<filter id="filter9_d_187_412" x="1237" y="509" width="74" height="74" filterUnits="userSpaceOnUse" color-interpolation-filters="sRGB">
<feFlood flood-opacity="0" result="BackgroundImageFix"/>
<feColorMatrix in="SourceAlpha" type="matrix" values="0 0 0 0 0 0 0 0 0 0 0 0 0 0 0 0 0 0 127 0" result="hardAlpha"/>
<feMorphology radius="2" operator="dilate" in="SourceAlpha" result="effect1_dropShadow_187_412"/>
<feOffset/>
<feGaussianBlur stdDeviation="12"/>
<feComposite in2="hardAlpha" operator="out"/>
<feColorMatrix type="matrix" values="0 0 0 0 0.819608 0 0 0 0 0.839216 0 0 0 0 1 0 0 0 0.8 0"/>
<feBlend mode="normal" in2="BackgroundImageFix" result="effect1_dropShadow_187_412"/>
<feBlend mode="normal" in="SourceGraphic" in2="effect1_dropShadow_187_412" result="shape"/>
</filter>
<filter id="filter10_d_187_412" x="-70" y="312" width="257.548" height="567.665" filterUnits="userSpaceOnUse" color-interpolation-filters="sRGB">
<feFlood flood-opacity="0" result="BackgroundImageFix"/>
<feColorMatrix in="SourceAlpha" type="matrix" values="0 0 0 0 0 0 0 0 0 0 0 0 0 0 0 0 0 0 127 0" result="hardAlpha"/>
<feOffset/>
<feGaussianBlur stdDeviation="35"/>
<feComposite in2="hardAlpha" operator="out"/>
<feColorMatrix type="matrix" values="0 0 0 0 0.941176 0 0 0 0 0.945098 0 0 0 0 0.996078 0 0 0 1 0"/>
<feBlend mode="normal" in2="BackgroundImageFix" result="effect1_dropShadow_187_412"/>
<feBlend mode="normal" in="SourceGraphic" in2="effect1_dropShadow_187_412" result="shape"/>
</filter>
<filter id="filter11_d_187_412" x="1016" y="587" width="458" height="364" filterUnits="userSpaceOnUse" color-interpolation-filters="sRGB">
<feFlood flood-opacity="0" result="BackgroundImageFix"/>
<feColorMatrix in="SourceAlpha" type="matrix" values="0 0 0 0 0 0 0 0 0 0 0 0 0 0 0 0 0 0 127 0" result="hardAlpha"/>
<feOffset/>
<feGaussianBlur stdDeviation="32"/>
<feComposite in2="hardAlpha" operator="out"/>
<feColorMatrix type="matrix" values="0 0 0 0 0.827451 0 0 0 0 0.878431 0 0 0 0 0.992157 0 0 0 0.5 0"/>
<feBlend mode="normal" in2="BackgroundImageFix" result="effect1_dropShadow_187_412"/>
<feBlend mode="normal" in="SourceGraphic" in2="effect1_dropShadow_187_412" result="shape"/>
</filter>
<filter id="filter12_d_187_412" x="1057.42" y="484.42" width="153.045" height="152.564" filterUnits="userSpaceOnUse" color-interpolation-filters="sRGB">
<feFlood flood-opacity="0" result="BackgroundImageFix"/>
<feColorMatrix in="SourceAlpha" type="matrix" values="0 0 0 0 0 0 0 0 0 0 0 0 0 0 0 0 0 0 127 0" result="hardAlpha"/>
<feOffset dx="7.776" dy="7.776"/>
<feGaussianBlur stdDeviation="11.178"/>
<feComposite in2="hardAlpha" operator="out"/>
<feColorMatrix type="matrix" values="0 0 0 0 0.905882 0 0 0 0 0.835294 0 0 0 0 0.988235 0 0 0 1 0"/>
<feBlend mode="normal" in2="BackgroundImageFix" result="effect1_dropShadow_187_412"/>
<feBlend mode="normal" in="SourceGraphic" in2="effect1_dropShadow_187_412" result="shape"/>
</filter>
<filter id="filter13_d_187_412" x="499" y="197" width="431.184" height="406.913" filterUnits="userSpaceOnUse" color-interpolation-filters="sRGB">
<feFlood flood-opacity="0" result="BackgroundImageFix"/>
<feColorMatrix in="SourceAlpha" type="matrix" values="0 0 0 0 0 0 0 0 0 0 0 0 0 0 0 0 0 0 127 0" result="hardAlpha"/>
<feOffset dx="10" dy="10"/>
<feGaussianBlur stdDeviation="12"/>
<feComposite in2="hardAlpha" operator="out"/>
<feColorMatrix type="matrix" values="0 0 0 0 0.713726 0 0 0 0 0.737255 0 0 0 0 0.972549 0 0 0 1 0"/>
<feBlend mode="normal" in2="BackgroundImageFix" result="effect1_dropShadow_187_412"/>
<feBlend mode="normal" in="SourceGraphic" in2="effect1_dropShadow_187_412" result="shape"/>
</filter>
<filter id="filter14_d_187_412" x="1002.76" y="142.418" width="135.414" height="147.115" filterUnits="userSpaceOnUse" color-interpolation-filters="sRGB">
<feFlood flood-opacity="0" result="BackgroundImageFix"/>
<feColorMatrix in="SourceAlpha" type="matrix" values="0 0 0 0 0 0 0 0 0 0 0 0 0 0 0 0 0 0 127 0" result="hardAlpha"/>
<feOffset dx="4.8" dy="4.8"/>
<feGaussianBlur stdDeviation="12"/>
<feComposite in2="hardAlpha" operator="out"/>
<feColorMatrix type="matrix" values="0 0 0 0 0.784314 0 0 0 0 0.8 0 0 0 0 0.976471 0 0 0 1 0"/>
<feBlend mode="normal" in2="BackgroundImageFix" result="effect1_dropShadow_187_412"/>
<feBlend mode="normal" in="SourceGraphic" in2="effect1_dropShadow_187_412" result="shape"/>
</filter>
<radialGradient id="paint0_radial_187_412" cx="0" cy="0" r="1" gradientUnits="userSpaceOnUse" gradientTransform="translate(705 480) rotate(109.925) scale(419.618 667.036)">
<stop offset="0.485577" stop-color="#FCFBFD"/>
<stop offset="1" stop-color="#F2F0FD"/>
</radialGradient>
<linearGradient id="paint1_linear_187_412" x1="283" y1="-3.00048" x2="-0.500025" y2="256.5" gradientUnits="userSpaceOnUse">
<stop stop-color="#F1F2FD"/>
<stop offset="0.476748" stop-color="#EDEFFD"/>
<stop offset="1" stop-color="#DCE6FD"/>
</linearGradient>
<linearGradient id="paint2_linear_187_412" x1="209" y1="9.71556e-06" x2="2.48755e-05" y2="163" gradientUnits="userSpaceOnUse">
<stop stop-color="#EEEFFE"/>
<stop offset="0.56614" stop-color="#E4E9FD"/>
<stop offset="1" stop-color="#CEDDFD"/>
</linearGradient>
<linearGradient id="paint3_linear_187_412" x1="1312.5" y1="-2.61911e-06" x2="1257" y2="210" gradientUnits="userSpaceOnUse">
<stop stop-color="#F4F2FD"/>
<stop offset="0.639423" stop-color="#ECE8FD"/>
<stop offset="1" stop-color="#E4D7FF"/>
</linearGradient>
<linearGradient id="paint4_linear_187_412" x1="1377" y1="1.75598e-06" x2="1327" y2="163" gradientUnits="userSpaceOnUse">
<stop stop-color="#EDEBFD"/>
<stop offset="0.43208" stop-color="#E9E5FC"/>
<stop offset="1" stop-color="#D6D2FF"/>
</linearGradient>
<linearGradient id="paint5_linear_187_412" x1="387.35" y1="176.6" x2="386.8" y2="201.35" gradientUnits="userSpaceOnUse">
<stop stop-color="#D5D8FC"/>
<stop offset="0.49668" stop-color="#CED0FB"/>
<stop offset="1" stop-color="#BCBFFD"/>
</linearGradient>
<linearGradient id="paint6_linear_187_412" x1="1055.29" y1="423.35" x2="1054.85" y2="443.15" gradientUnits="userSpaceOnUse">
<stop stop-color="#D5D8FC"/>
<stop offset="0.49668" stop-color="#CED0FB"/>
<stop offset="1" stop-color="#BCBFFD"/>
</linearGradient>
<linearGradient id="paint7_linear_187_412" x1="949.124" y1="637.88" x2="948.596" y2="661.64" gradientUnits="userSpaceOnUse">
<stop stop-color="#D5D8FC"/>
<stop offset="0.49668" stop-color="#BCBFFF"/>
<stop offset="1" stop-color="#AFB3FF"/>
</linearGradient>
<linearGradient id="paint8_linear_187_412" x1="1315.1" y1="264.896" x2="1314.57" y2="288.656" gradientUnits="userSpaceOnUse">
<stop stop-color="#D5D8FC"/>
<stop offset="0.49668" stop-color="#BCBFFF"/>
<stop offset="1" stop-color="#AFB3FF"/>
</linearGradient>
<radialGradient id="paint9_radial_187_412" cx="0" cy="0" r="1" gradientUnits="userSpaceOnUse" gradientTransform="translate(340.5 266.5) rotate(88.2643) scale(16.5076)">
<stop offset="0.33" stop-color="#B1B8F9"/>
<stop offset="0.846154" stop-color="#A4A9FA"/>
<stop offset="1" stop-color="#9092FB"/>
</radialGradient>
<radialGradient id="paint10_radial_187_412" cx="0" cy="0" r="1" gradientUnits="userSpaceOnUse" gradientTransform="translate(1193.8 351.8) rotate(88.2643) scale(19.8091)">
<stop offset="0.33" stop-color="#B1B8F9"/>
<stop offset="0.846154" stop-color="#A4A9FA"/>
<stop offset="1" stop-color="#9092FB"/>
</radialGradient>
<radialGradient id="paint11_radial_187_412" cx="0" cy="0" r="1" gradientUnits="userSpaceOnUse" gradientTransform="translate(250 222) rotate(90) scale(11)">
<stop stop-color="#DCDFFD"/>
<stop offset="1" stop-color="#CCD2FF"/>
</radialGradient>
<radialGradient id="paint12_radial_187_412" cx="0" cy="0" r="1" gradientUnits="userSpaceOnUse" gradientTransform="translate(1274 546) rotate(90) scale(11)">
<stop stop-color="#DCDFFD"/>
<stop offset="1" stop-color="#CCD2FF"/>
</radialGradient>
<linearGradient id="paint13_linear_187_412" x1="73.0931" y1="693.229" x2="325.792" y2="894.601" gradientUnits="userSpaceOnUse">
<stop stop-color="#F4F5FE"/>
<stop offset="1" stop-color="#E0E1FD"/>
</linearGradient>
<linearGradient id="paint14_linear_187_412" x1="1136" y1="635.5" x2="1236" y2="807" gradientUnits="userSpaceOnUse">
<stop stop-color="#F4F5FF"/>
<stop offset="1" stop-color="#D2D3FF"/>
</linearGradient>
<linearGradient id="paint15_linear_187_412" x1="132.89" y1="742.234" x2="132.89" y2="887" gradientUnits="userSpaceOnUse">
<stop stop-color="#E5E9FD"/>
<stop offset="1" stop-color="#D1D8FC"/>
</linearGradient>
<linearGradient id="paint16_linear_187_412" x1="78" y1="382" x2="-2.39698e-06" y2="726.5" gradientUnits="userSpaceOnUse">
<stop stop-color="#F6F6FD"/>
<stop offset="0.50445" stop-color="#E6EAFD"/>
<stop offset="1" stop-color="#D2DAFF"/>
</linearGradient>
<linearGradient id="paint17_linear_187_412" x1="30" y1="511" x2="-1.35491e-06" y2="698" gradientUnits="userSpaceOnUse">
<stop stop-color="#EEF1FF" stop-opacity="0"/>
<stop offset="0.481018" stop-color="#D3E1FF" stop-opacity="0.5"/>
<stop offset="1" stop-color="#B4BBFA" stop-opacity="0.8"/>
</linearGradient>
<linearGradient id="paint18_linear_187_412" x1="1152.5" y1="694" x2="1263.24" y2="820.838" gradientUnits="userSpaceOnUse">
<stop stop-color="#F8F6FF"/>
<stop offset="0.281163" stop-color="#EDEFFD"/>
<stop offset="1" stop-color="#DAD6FF"/>
</linearGradient>
<linearGradient id="paint19_linear_187_412" x1="1270.88" y1="766.711" x2="1389.68" y2="904.516" gradientUnits="userSpaceOnUse">
<stop stop-color="#EEEFFE"/>
<stop offset="0.425447" stop-color="#F1EAFF"/>
<stop offset="1" stop-color="#EBE1FF"/>
</linearGradient>
<linearGradient id="paint20_linear_187_412" x1="704.5" y1="340" x2="546" y2="498" gradientUnits="userSpaceOnUse">
<stop stop-color="#A9AEF8"/>
<stop offset="1" stop-color="#8188F8"/>
</linearGradient>
<linearGradient id="paint21_linear_187_412" x1="774" y1="403.319" x2="774" y2="497.73" gradientUnits="userSpaceOnUse">
<stop stop-color="#ABA1FF"/>
<stop offset="1" stop-color="#8577F2"/>
</linearGradient>
<linearGradient id="paint22_linear_187_412" x1="774" y1="302.5" x2="774" y2="365.5" gradientUnits="userSpaceOnUse">
<stop stop-color="#ABB1F9"/>
<stop offset="1" stop-color="#8284FF"/>
</linearGradient>
<linearGradient id="paint23_linear_187_412" x1="704.079" y1="645.289" x2="704.079" y2="753.314" gradientUnits="userSpaceOnUse">
<stop stop-color="#8C80F5"/>
<stop offset="1" stop-color="#5865F2"/>
</linearGradient>
<linearGradient id="paint24_linear_187_412" x1="704.079" y1="645.289" x2="704.079" y2="753.314" gradientUnits="userSpaceOnUse">
<stop stop-color="#8C80F5"/>
<stop offset="1" stop-color="#5865F2"/>
</linearGradient>
<linearGradient id="paint25_linear_187_412" x1="704.079" y1="645.289" x2="704.079" y2="753.314" gradientUnits="userSpaceOnUse">
<stop stop-color="#8C80F5"/>
<stop offset="1" stop-color="#5865F2"/>
</linearGradient>
<linearGradient id="paint26_linear_187_412" x1="704.079" y1="645.289" x2="704.079" y2="753.314" gradientUnits="userSpaceOnUse">
<stop stop-color="#8C80F5"/>
<stop offset="1" stop-color="#5865F2"/>
</linearGradient>
<linearGradient id="paint27_linear_187_412" x1="704.079" y1="645.289" x2="704.079" y2="753.314" gradientUnits="userSpaceOnUse">
<stop stop-color="#8C80F5"/>
<stop offset="1" stop-color="#5865F2"/>
</linearGradient>
<linearGradient id="paint28_linear_187_412" x1="704.079" y1="645.289" x2="704.079" y2="753.314" gradientUnits="userSpaceOnUse">
<stop stop-color="#8C80F5"/>
<stop offset="1" stop-color="#5865F2"/>
</linearGradient>
<linearGradient id="paint29_linear_187_412" x1="704.079" y1="645.289" x2="704.079" y2="753.314" gradientUnits="userSpaceOnUse">
<stop stop-color="#8C80F5"/>
<stop offset="1" stop-color="#5865F2"/>
</linearGradient>
<linearGradient id="paint30_linear_187_412" x1="822.722" y1="643.641" x2="822.722" y2="675.575" gradientUnits="userSpaceOnUse">
<stop stop-color="#8C80F5"/>
<stop offset="0.677885" stop-color="#7373F4"/>
</linearGradient>
<linearGradient id="paint31_linear_187_412" x1="649.4" y1="663.2" x2="648.4" y2="663.2" gradientUnits="userSpaceOnUse">
<stop stop-color="#8C80F5"/>
<stop offset="1" stop-color="#5865F2"/>
</linearGradient>
<linearGradient id="paint32_linear_187_412" x1="653.601" y1="667.4" x2="653.601" y2="668.4" gradientUnits="userSpaceOnUse">
<stop stop-color="#8C80F5"/>
<stop offset="1" stop-color="#5865F2"/>
</linearGradient>
<linearGradient id="paint33_linear_187_412" x1="4.20454" y1="0" x2="4.20454" y2="1" gradientUnits="userSpaceOnUse">
<stop stop-color="#8C80F5"/>
<stop offset="1" stop-color="#5865F2"/>
</linearGradient>
<linearGradient id="paint34_linear_187_412" x1="4.2" y1="0" x2="4.2" y2="1" gradientUnits="userSpaceOnUse">
<stop stop-color="#8C80F5"/>
<stop offset="1" stop-color="#5865F2"/>
</linearGradient>
<linearGradient id="paint35_linear_187_412" x1="678.801" y1="646.4" x2="679.801" y2="646.4" gradientUnits="userSpaceOnUse">
<stop stop-color="#8C80F5"/>
<stop offset="1" stop-color="#5865F2"/>
</linearGradient>
<linearGradient id="paint36_linear_187_412" x1="674.601" y1="642.199" x2="674.601" y2="641.199" gradientUnits="userSpaceOnUse">
<stop stop-color="#8C80F5"/>
<stop offset="1" stop-color="#5865F2"/>
</linearGradient>
<linearGradient id="paint37_linear_187_412" x1="4.2" y1="0" x2="4.2" y2="1" gradientUnits="userSpaceOnUse">
<stop stop-color="#8C80F5"/>
<stop offset="1" stop-color="#5865F2"/>
</linearGradient>
<linearGradient id="paint38_linear_187_412" x1="4.2" y1="0" x2="4.2" y2="1" gradientUnits="userSpaceOnUse">
<stop stop-color="#8C80F5"/>
<stop offset="1" stop-color="#5865F2"/>
</linearGradient>
<linearGradient id="paint39_linear_187_412" x1="238.575" y1="326.404" x2="238.575" y2="405.67" gradientUnits="userSpaceOnUse">
<stop stop-color="#B1B8FA"/>
<stop offset="1" stop-color="#8585F8"/>
</linearGradient>
<linearGradient id="paint40_linear_187_412" x1="320.186" y1="553.332" x2="320.186" y2="627.787" gradientUnits="userSpaceOnUse">
<stop stop-color="#9E9DF4"/>
<stop offset="1" stop-color="#7D73FC"/>
</linearGradient>
<linearGradient id="paint41_linear_187_412" x1="322.054" y1="585.26" x2="322.054" y2="658.479" gradientUnits="userSpaceOnUse">
<stop stop-color="#9D9CF4"/>
<stop offset="1" stop-color="#7D74FC"/>
</linearGradient>
<clipPath id="clip0_187_412">
<rect width="1410" height="887" fill="white"/>
</clipPath>
</defs>
</svg>
