<svg width="177" height="65" viewBox="0 0 177 65" fill="none" xmlns="http://www.w3.org/2000/svg">
<path d="M33.9006 47.61V21.09H57.7006V48L45.5716 38.0476L33.9006 47.61Z" fill="#5865F2"/>
<path d="M16.5525 47.7986C14.2214 47.7986 12.1457 47.3994 10.3255 46.6011C8.5053 45.8027 7.0683 44.717 6.01449 43.3438C4.96069 41.9388 4.36992 40.374 4.24219 38.6496H12.3373C12.4331 39.5757 12.8642 40.3261 13.6306 40.9009C14.397 41.4757 15.3391 41.7631 16.4567 41.7631C17.4786 41.7631 18.261 41.5715 18.8038 41.1883C19.3786 40.7732 19.666 40.2463 19.666 39.6076C19.666 38.8412 19.2669 38.2824 18.4685 37.9311C17.6702 37.5479 16.3769 37.1328 14.5886 36.6857C12.6726 36.2387 11.0759 35.7756 9.79861 35.2966C8.52127 34.7857 7.41956 34.0033 6.49349 32.9495C5.56743 31.8638 5.10439 30.4108 5.10439 28.5906C5.10439 27.0578 5.51952 25.6687 6.34979 24.4233C7.212 23.1459 8.4574 22.14 10.086 21.4056C11.7465 20.6711 13.7105 20.3039 15.9777 20.3039C19.3307 20.3039 21.9652 21.1341 23.8813 22.7947C25.8292 24.4552 26.9469 26.6586 27.2343 29.4049H19.666C19.5383 28.4788 19.1232 27.7444 18.4206 27.2015C17.75 26.6586 16.8559 26.3872 15.7382 26.3872C14.7802 26.3872 14.0458 26.5788 13.5348 26.962C13.0239 27.3133 12.7684 27.8082 12.7684 28.4469C12.7684 29.2133 13.1676 29.7881 13.9659 30.1713C14.7962 30.5545 16.0735 30.9377 17.7979 31.3209C19.7778 31.8318 21.3904 32.3428 22.6358 32.8537C23.8813 33.3327 24.967 34.131 25.8931 35.2487C26.8511 36.3345 27.346 37.8034 27.378 39.6555C27.378 41.2203 26.9309 42.6253 26.0368 43.8707C25.1746 45.0842 23.9132 46.0422 22.2526 46.7448C20.624 47.4473 18.724 47.7986 16.5525 47.7986Z" fill="#5865F2"/>
<path d="M68.785 15.0058C67.348 15.0058 66.1665 14.5907 65.2404 13.7604C64.3463 12.8982 63.8992 11.8444 63.8992 10.599C63.8992 9.32167 64.3463 8.26786 65.2404 7.43759C66.1665 6.57539 67.348 6.14429 68.785 6.14429C70.1901 6.14429 71.3397 6.57539 72.2338 7.43759C73.1599 8.26786 73.6229 9.32167 73.6229 10.599C73.6229 11.8444 73.1599 12.8982 72.2338 13.7604C71.3397 14.5907 70.1901 15.0058 68.785 15.0058ZM72.8565 20.6871V47.4154H64.6656V20.6871H72.8565Z" fill="#5865F2"/>
<path d="M86.9833 24.4712C87.7817 23.2258 88.8834 22.2199 90.2885 21.4535C91.6935 20.6871 93.3381 20.3039 95.2222 20.3039C97.4256 20.3039 99.4214 20.8627 101.21 21.9804C102.998 23.098 104.403 24.6947 105.425 26.7704C106.479 28.8461 107.006 31.257 107.006 34.0033C107.006 36.7496 106.479 39.1765 105.425 41.2841C104.403 43.3598 102.998 44.9725 101.21 46.1221C99.4214 47.2397 97.4256 47.7986 95.2222 47.7986C93.37 47.7986 91.7255 47.4154 90.2885 46.649C88.8834 45.8826 87.7817 44.8926 86.9833 43.6791V60.1568H78.7924V20.6871H86.9833V24.4712ZM98.671 34.0033C98.671 31.9596 98.0962 30.3629 96.9466 29.2133C95.8289 28.0318 94.4398 27.441 92.7793 27.441C91.1507 27.441 89.7616 28.0318 88.612 29.2133C87.4943 30.3948 86.9354 32.0075 86.9354 34.0512C86.9354 36.095 87.4943 37.7076 88.612 38.8891C89.7616 40.0707 91.1507 40.6614 92.7793 40.6614C94.4079 40.6614 95.797 40.0707 96.9466 38.8891C98.0962 37.6757 98.671 36.0471 98.671 34.0033Z" fill="#5865F2"/>
<path d="M119.494 24.4712C120.292 23.2258 121.394 22.2199 122.799 21.4535C124.204 20.6871 125.848 20.3039 127.733 20.3039C129.936 20.3039 131.932 20.8627 133.72 21.9804C135.508 23.098 136.913 24.6947 137.935 26.7704C138.989 28.8461 139.516 31.257 139.516 34.0033C139.516 36.7496 138.989 39.1765 137.935 41.2841C136.913 43.3598 135.508 44.9725 133.72 46.1221C131.932 47.2397 129.936 47.7986 127.733 47.7986C125.88 47.7986 124.236 47.4154 122.799 46.649C121.394 45.8826 120.292 44.8926 119.494 43.6791V60.1568H111.303V20.6871H119.494V24.4712ZM131.181 34.0033C131.181 31.9596 130.607 30.3629 129.457 29.2133C128.339 28.0318 126.95 27.441 125.29 27.441C123.661 27.441 122.272 28.0318 121.122 29.2133C120.005 30.3948 119.446 32.0075 119.446 34.0512C119.446 36.095 120.005 37.7076 121.122 38.8891C122.272 40.0707 123.661 40.6614 125.29 40.6614C126.918 40.6614 128.307 40.0707 129.457 38.8891C130.607 37.6757 131.181 36.0471 131.181 34.0033Z" fill="#5865F2"/>
<path d="M152.004 20.6871V47.4154H143.813V20.6871H152.004Z" fill="#5865F2"/>
<path d="M172.837 40.4698V47.4154H168.67C165.7 47.4154 163.385 46.6969 161.724 45.2599C160.064 43.7909 159.233 41.4119 159.233 38.1227V27.4889H155.976V20.6871H159.233V14.1726H167.424V20.6871H172.789V27.4889H167.424V38.2185C167.424 39.0169 167.616 39.5917 167.999 39.9429C168.382 40.2942 169.021 40.4698 169.915 40.4698H172.837Z" fill="#5865F2"/>
<path d="M146.32 5.52936C150.01 4.81317 152.948 5.87892 154.807 9.82721C155.268 11.8463 155.175 13.0507 154.807 14.1251C154.438 15.1996 152.809 17.4152 150.379 18.7803L152.962 21.2881H146.051L141.522 15.5577C140.586 14.0879 140.416 12.334 140.785 10.9014C141.154 9.46883 142.63 6.24569 146.32 5.52936ZM147.981 8.22369C145.577 8.22387 143.627 10.0114 143.627 12.2159C143.627 14.4202 145.577 16.2069 147.981 16.2071C150.386 16.2071 152.336 14.4203 152.336 12.2159C152.336 10.0113 150.386 8.22369 147.981 8.22369Z" fill="#5865F2"/>
<line x1="61.9002" y1="13" x2="61.9002" y2="17.2" stroke="#5865F2" stroke-width="1.4"/>
<line x1="61.2002" y1="16.5" x2="65.4002" y2="16.5" stroke="#5865F2" stroke-width="1.4"/>
<line y1="-0.7" x2="4.20454" y2="-0.7" transform="matrix(0 -1 -1 0 61.4961 8.79999)" stroke="#5865F2" stroke-width="1.4"/>
<line y1="-0.7" x2="4.2" y2="-0.7" transform="matrix(1 0 0 -1 61.4961 4.5954)" stroke="#5865F2" stroke-width="1.4"/>
<line x1="75.2004" y1="8.79999" x2="75.2004" y2="4.59999" stroke="#5865F2" stroke-width="1.4"/>
<line x1="75.9004" y1="5.29998" x2="71.7004" y2="5.29998" stroke="#5865F2" stroke-width="1.4"/>
<line y1="-0.7" x2="4.2" y2="-0.7" transform="matrix(0 1 1 0 75.9004 13)" stroke="#5865F2" stroke-width="1.4"/>
<line y1="-0.7" x2="4.2" y2="-0.7" transform="matrix(-1 0 0 1 75.9004 17.2)" stroke="#5865F2" stroke-width="1.4"/>
</svg>
